<svg xmlns="http://www.w3.org/2000/svg" xmlns:xlink="http://www.w3.org/1999/xlink" width="102" height="120" viewBox="0 0 102 120">
  <defs>
    <clipPath id="clip-path">
      <rect id="Rectangle_596" data-name="Rectangle 596" width="102" height="120" transform="translate(504 456)" fill="none" stroke="#707070" stroke-width="1"/>
    </clipPath>
    <clipPath id="clip-path-2">
      <rect id="Rectangle_581" data-name="Rectangle 581" width="93.59" height="92.222" fill="none"/>
    </clipPath>
  </defs>
  <g id="Mask_Group_4" data-name="Mask Group 4" transform="translate(-504 -456)" clip-path="url(#clip-path)">
    <g id="Group_159" data-name="Group 159" transform="translate(0 6)">
      <path id="Path_92" data-name="Path 92" d="M35.84,103.431V115.69H34.093V103.431H30.268v-1.437h9.4v1.437Z" transform="translate(494.874 415.708)" fill="#fff"/>
      <path id="Path_93" data-name="Path 93" d="M35.892,115.743h-2.8V103.484H29.267v-2.491H39.718v2.491H35.892Zm-1.747-1.053h.694V102.431h3.826v-.385H30.32v.385h3.825Z" transform="translate(495.348 416.181)" fill="#fff"/>
      <g id="Group_28" data-name="Group 28" transform="translate(508 464)">
        <g id="Group_27" data-name="Group 27" clip-path="url(#clip-path-2)">
          <path id="Path_94" data-name="Path 94" d="M55.7,108.649c0-4.087,3.66-7.085,8.193-7.085s8.194,3,8.194,7.085c0,4.066-3.636,7.084-8.194,7.084s-8.193-3.019-8.193-7.084m1.794,0c0,3.142,2.857,5.647,6.4,5.647s6.4-2.505,6.4-5.647S67.432,103,63.89,103s-6.4,2.505-6.4,5.647" transform="translate(-26.372 -48.089)" fill="#fff"/>
          <path id="Path_95" data-name="Path 95" d="M63.417,115.787c-4.889,0-8.72-3.343-8.72-7.611s3.83-7.611,8.72-7.611,8.72,3.343,8.72,7.611-3.83,7.611-8.72,7.611m0-14.169c-4.371,0-7.667,2.819-7.667,6.558s3.3,6.558,7.667,6.558,7.667-2.819,7.667-6.558-3.3-6.558-7.667-6.558m0,12.731c-3.818,0-6.925-2.769-6.925-6.173S59.6,102,63.417,102s6.925,2.769,6.925,6.174-3.106,6.173-6.925,6.173m0-11.294c-3.238,0-5.872,2.3-5.872,5.121s2.634,5.12,5.872,5.12,5.872-2.3,5.872-5.12-2.634-5.121-5.872-5.121" transform="translate(-25.898 -47.616)" fill="#fff"/>
          <path id="Path_96" data-name="Path 96" d="M99.2,101.993h3.211a9.477,9.477,0,0,1,5.809,1.6,6.359,6.359,0,0,1,2.692,5.257,6.262,6.262,0,0,1-2.763,5.257c-1.441,1.067-2.952,1.581-5.762,1.581H99.2Zm1.747,12.259h1.535a7.446,7.446,0,0,0,4.51-1.232,4.988,4.988,0,0,0,2.126-4.168c0-3.285-2.645-5.422-6.635-5.422h-1.535Z" transform="translate(-46.97 -48.292)" fill="#fff"/>
          <path id="Path_97" data-name="Path 97" d="M101.915,115.743H98.2v-14.75h3.738a9.955,9.955,0,0,1,6.12,1.7,6.894,6.894,0,0,1,2.907,5.681,6.731,6.731,0,0,1-2.975,5.68,9.271,9.271,0,0,1-6.075,1.685m-2.661-1.053h2.661c2.876,0,4.217-.565,5.448-1.477a5.709,5.709,0,0,0,2.55-4.834,5.866,5.866,0,0,0-2.475-4.831,8.989,8.989,0,0,0-5.5-1.5H99.254Zm2.755-.384H99.948V102.43h2.061c4.284,0,7.162,2.39,7.162,5.948a5.5,5.5,0,0,1-2.341,4.594,7.921,7.921,0,0,1-4.82,1.333M101,113.252h1.008a6.949,6.949,0,0,0,4.2-1.132,4.483,4.483,0,0,0,1.907-3.742c0-2.973-2.4-4.9-6.109-4.9H101Z" transform="translate(-46.497 -47.819)" fill="#fff"/>
          <path id="Path_98" data-name="Path 98" d="M140.1,104.5a3.412,3.412,0,0,0-.921-1.026A3.114,3.114,0,0,0,137.4,103c-1.558,0-2.645.842-2.645,2.115a1.359,1.359,0,0,0,.59,1.192,5.341,5.341,0,0,0,1.653.862l1.511.575a7.935,7.935,0,0,1,2.432,1.294,3.083,3.083,0,0,1,1.134,2.485c0,2.526-2.148,4.209-4.982,4.209a5.137,5.137,0,0,1-3.424-1.108,4.787,4.787,0,0,1-1.464-2.424l1.7-.411a3.078,3.078,0,0,0,.944,1.745,3.276,3.276,0,0,0,2.267.76c2.149,0,3.163-1.335,3.163-2.71a1.925,1.925,0,0,0-.778-1.6,7.217,7.217,0,0,0-1.89-.945l-1.416-.575a7.209,7.209,0,0,1-2.1-1.129,2.688,2.688,0,0,1-1.087-2.239c0-2.115,1.865-3.532,4.416-3.532a4.748,4.748,0,0,1,2.526.616,4.385,4.385,0,0,1,1.535,1.52Z" transform="translate(-62.599 -48.089)" fill="#fff"/>
          <path id="Path_99" data-name="Path 99" d="M136.519,115.786a5.56,5.56,0,0,1-3.765-1.234,5.307,5.307,0,0,1-1.633-2.693l-.134-.518,2.771-.67.092.56a2.556,2.556,0,0,0,.781,1.443,2.724,2.724,0,0,0,1.911.621c1.947,0,2.637-1.177,2.637-2.184a1.406,1.406,0,0,0-.581-1.189,6.933,6.933,0,0,0-1.756-.868l-1.544-.625a7.311,7.311,0,0,1-2.118-1.164,3.211,3.211,0,0,1-1.274-2.642c0-2.389,2.032-4.058,4.942-4.058a5.273,5.273,0,0,1,2.79.687,4.891,4.891,0,0,1,1.724,1.706l.273.459-2.312,1.329-.263-.456a2.886,2.886,0,0,0-.765-.857,2.606,2.606,0,0,0-1.47-.378c-1.286,0-2.118.623-2.118,1.588a.845.845,0,0,0,.4.785,4.915,4.915,0,0,0,1.507.778l1.51.574a8.3,8.3,0,0,1,2.59,1.388,3.627,3.627,0,0,1,1.314,2.882c0,2.744-2.317,4.736-5.508,4.736m-4.214-3.679a4.077,4.077,0,0,0,1.129,1.642,4.556,4.556,0,0,0,3.084.985c2.623,0,4.455-1.515,4.455-3.683a2.562,2.562,0,0,0-.952-2.088,7.424,7.424,0,0,0-2.273-1.2l-1.512-.575a5.759,5.759,0,0,1-1.811-.957,1.869,1.869,0,0,1-.771-1.588c0-1.555,1.3-2.641,3.171-2.641a3.649,3.649,0,0,1,2.064.561,3.778,3.778,0,0,1,.788.764l.472-.271a3.869,3.869,0,0,0-1.038-.895,4.228,4.228,0,0,0-2.262-.545c-2.29,0-3.889,1.236-3.889,3.005a2.163,2.163,0,0,0,.9,1.835,6.309,6.309,0,0,0,1.83.992l1.547.628a7.532,7.532,0,0,1,2.026,1.027,2.431,2.431,0,0,1,.971,2.008c0,1.559-1.155,3.237-3.69,3.237a3.754,3.754,0,0,1-2.613-.889,3.647,3.647,0,0,1-.98-1.509Z" transform="translate(-62.02 -47.616)" fill="#fff"/>
          <path id="Path_100" data-name="Path 100" d="M18.574,157.441v2.189h-.729v-2.189h-.6v-.619h1.924v.619Z" transform="translate(-8.166 -74.253)" fill="#fff"/>
          <path id="Path_101" data-name="Path 101" d="M25.288,157.871H26.34v-1.048h.733v2.808H26.34v-1.137H25.288v1.137h-.728v-2.808h.728Z" transform="translate(-11.629 -74.253)" fill="#fff"/>
          <path id="Path_102" data-name="Path 102" d="M35.912,159.22a1.679,1.679,0,0,1-2.215,0,1.47,1.47,0,0,1,0-2.1,1.682,1.682,0,0,1,2.215,0,1.47,1.47,0,0,1,0,2.1m-1.676-1.587a.774.774,0,0,0-.223.552.714.714,0,0,0,.223.522.8.8,0,0,0,.569.223.763.763,0,0,0,.791-.758.758.758,0,0,0-.227-.539.846.846,0,0,0-.564-.223.814.814,0,0,0-.569.223" transform="translate(-15.746 -74.197)" fill="#fff"/>
          <path id="Path_103" data-name="Path 103" d="M42.72,159.631l.475-2.808h.72l.568,1.5.6-1.5h.729l.421,2.808h-.728l-.206-1.616-.678,1.616h-.29l-.649-1.616-.24,1.616Z" transform="translate(-20.227 -74.253)" fill="#fff"/>
          <path id="Path_104" data-name="Path 104" d="M54.047,158.7v.931h-.728v-2.808h1.162a.968.968,0,0,1,.711.252.87.87,0,0,1,.261.682.911.911,0,0,1-.249.7.935.935,0,0,1-.7.244Zm0-.589h.244a.479.479,0,0,0,.307-.088.321.321,0,0,0,.093-.256.341.341,0,0,0-.085-.253.427.427,0,0,0-.311-.1h-.249Z" transform="translate(-25.246 -74.253)" fill="#fff"/>
          <path id="Path_105" data-name="Path 105" d="M61.223,158.731a.984.984,0,0,0,.644.286.369.369,0,0,0,.282-.1.251.251,0,0,0,.072-.177.221.221,0,0,0-.08-.168,1,1,0,0,0-.362-.147l-.19-.059a.929.929,0,0,1-.4-.227.707.707,0,0,1-.16-.5.92.92,0,0,1,.257-.678A.992.992,0,0,1,62,156.7a1.971,1.971,0,0,1,.867.227l-.291.568a.738.738,0,0,0-.48-.189.347.347,0,0,0-.24.084.207.207,0,0,0-.072.151.188.188,0,0,0,.038.126.461.461,0,0,0,.244.127l.223.067a1.071,1.071,0,0,1,.51.278.66.66,0,0,1,.181.5.952.952,0,0,1-.265.708,1.089,1.089,0,0,1-.829.286,1.5,1.5,0,0,1-.551-.093,1.936,1.936,0,0,1-.425-.223Z" transform="translate(-28.84 -74.196)" fill="#fff"/>
          <path id="Path_106" data-name="Path 106" d="M71.176,159.22a1.679,1.679,0,0,1-2.215,0,1.47,1.47,0,0,1,0-2.1,1.682,1.682,0,0,1,2.215,0,1.47,1.47,0,0,1,0,2.1M69.5,157.633a.772.772,0,0,0-.223.552.712.712,0,0,0,.223.522.8.8,0,0,0,.568.223.763.763,0,0,0,.792-.758.76.76,0,0,0-.227-.539.846.846,0,0,0-.564-.223.813.813,0,0,0-.568.223" transform="translate(-32.443 -74.197)" fill="#fff"/>
          <path id="Path_107" data-name="Path 107" d="M78.326,159.631v-2.808h.729L80.4,158.54v-1.717h.728v2.808H80.4l-1.343-1.718v1.718Z" transform="translate(-37.086 -74.253)" fill="#fff"/>
          <path id="Path_108" data-name="Path 108" d="M95.129,159.22a1.679,1.679,0,0,1-2.215,0,1.47,1.47,0,0,1,0-2.1,1.682,1.682,0,0,1,2.215,0,1.47,1.47,0,0,1,0,2.1m-1.676-1.587a.772.772,0,0,0-.223.552.712.712,0,0,0,.223.522.8.8,0,0,0,.568.223.763.763,0,0,0,.792-.758.76.76,0,0,0-.227-.539.846.846,0,0,0-.564-.223.813.813,0,0,0-.568.223" transform="translate(-43.785 -74.197)" fill="#fff"/>
          <path id="Path_109" data-name="Path 109" d="M103.009,157.98l.892-1.157h.9l-1.115,1.33,1.217,1.478h-.943l-.951-1.217v1.217h-.729v-2.808h.729Z" transform="translate(-48.428 -74.253)" fill="#fff"/>
          <path id="Path_110" data-name="Path 110" d="M112.395,159.16h-1.018l-.19.471h-.771l1.078-2.808h.8l1.057,2.808h-.779Zm-.193-.556-.316-.91-.307.91Z" transform="translate(-52.28 -74.253)" fill="#fff"/>
          <path id="Path_111" data-name="Path 111" d="M119.64,159.631v-2.808h.729l1.343,1.717v-1.717h.728v2.808h-.728l-1.343-1.718v1.718Z" transform="translate(-56.648 -74.253)" fill="#fff"/>
          <path id="Path_112" data-name="Path 112" d="M130.593,159.16h-1.018l-.19.471h-.771l1.078-2.808h.8l1.057,2.808h-.779Zm-.193-.556-.316-.91-.307.91Z" transform="translate(-60.897 -74.253)" fill="#fff"/>
          <path id="Path_113" data-name="Path 113" d="M138.911,157.982h1.448a1.57,1.57,0,0,1-.45,1.263,1.373,1.373,0,0,1-.99.354,1.448,1.448,0,0,1-1.078-.417,1.413,1.413,0,0,1-.4-1.014,1.464,1.464,0,0,1,.421-1.053,1.631,1.631,0,0,1,1.849-.223,1.379,1.379,0,0,1,.5.576l-.694.286a.689.689,0,0,0-.2-.282.587.587,0,0,0-.392-.138.679.679,0,0,0-.48.194.945.945,0,0,0-.244.643.878.878,0,0,0,.223.607.665.665,0,0,0,.514.215.6.6,0,0,0,.4-.131.5.5,0,0,0,.173-.312h-.6Z" transform="translate(-65.074 -74.196)" fill="#fff"/>
          <path id="Path_114" data-name="Path 114" d="M148.08,159.16h-1.018l-.19.471H146.1l1.078-2.808h.8l1.057,2.808h-.779Zm-.193-.556-.316-.91-.307.91Z" transform="translate(-69.177 -74.253)" fill="#fff"/>
          <path id="Path_115" data-name="Path 115" d="M155.325,159.631v-2.808h.729l1.343,1.717v-1.717h.728v2.808H157.4l-1.343-1.718v1.718Z" transform="translate(-73.544 -74.253)" fill="#fff"/>
          <path id="Path_116" data-name="Path 116" d="M38.871,172.51V169.7h.956a1.567,1.567,0,0,1,1.116.388,1.372,1.372,0,0,1,.391,1.023,1.294,1.294,0,0,1-.366.972,1.525,1.525,0,0,1-1.078.425Zm.729-.619h.147a.839.839,0,0,0,.615-.2.765.765,0,0,0,.214-.577.837.837,0,0,0-.219-.614.815.815,0,0,0-.581-.177H39.6Z" transform="translate(-18.405 -80.351)" fill="#fff"/>
          <path id="Path_117" data-name="Path 117" d="M49.067,170.321H48.2v.467h.821v.619H48.2v.484h.867v.619h-1.6V169.7h1.6Z" transform="translate(-22.477 -80.351)" fill="#fff"/>
          <path id="Path_118" data-name="Path 118" d="M54.424,172.51V169.7h.728L56.5,171.42V169.7h.728v2.808H56.5l-1.343-1.717v1.717Z" transform="translate(-25.769 -80.351)" fill="#fff"/>
          <path id="Path_119" data-name="Path 119" d="M64.725,170.321v2.189H64v-2.189h-.6V169.7h1.924v.619Z" transform="translate(-30.018 -80.351)" fill="#fff"/>
          <path id="Path_120" data-name="Path 120" d="M71.946,172.039H70.927l-.19.471h-.771l1.078-2.808h.8L72.9,172.51h-.779Zm-.193-.555-.316-.91-.307.91Z" transform="translate(-33.128 -80.351)" fill="#fff"/>
          <path id="Path_121" data-name="Path 121" d="M79.92,169.7v2.189H80.8v.619h-1.6V169.7Z" transform="translate(-37.496 -80.351)" fill="#fff"/>
          <path id="Path_122" data-name="Path 122" d="M90.967,171.611a.986.986,0,0,0,.644.286.37.37,0,0,0,.282-.1.253.253,0,0,0,.072-.177.22.22,0,0,0-.081-.168,1.012,1.012,0,0,0-.362-.147l-.19-.058a.927.927,0,0,1-.4-.227.705.705,0,0,1-.16-.5.922.922,0,0,1,.256-.678.992.992,0,0,1,.72-.265,1.966,1.966,0,0,1,.868.227l-.291.568a.74.74,0,0,0-.48-.19.349.349,0,0,0-.24.084.208.208,0,0,0-.072.152.186.186,0,0,0,.038.126.453.453,0,0,0,.244.127l.223.067a1.069,1.069,0,0,1,.51.278.661.661,0,0,1,.181.5.951.951,0,0,1-.265.707,1.089,1.089,0,0,1-.829.286,1.5,1.5,0,0,1-.552-.093,1.95,1.95,0,0,1-.425-.223Z" transform="translate(-42.924 -80.295)" fill="#fff"/>
          <path id="Path_123" data-name="Path 123" d="M100.921,172.1a1.68,1.68,0,0,1-2.215,0,1.469,1.469,0,0,1,0-2.1,1.679,1.679,0,0,1,2.215,0,1.472,1.472,0,0,1,0,2.1m-1.676-1.587a.768.768,0,0,0-.223.551.716.716,0,0,0,.223.522.8.8,0,0,0,.569.223.762.762,0,0,0,.791-.758.758.758,0,0,0-.227-.539.841.841,0,0,0-.564-.223.808.808,0,0,0-.569.223" transform="translate(-46.527 -80.294)" fill="#fff"/>
          <path id="Path_124" data-name="Path 124" d="M109.975,172.392a1.744,1.744,0,0,1-.631.139,1.529,1.529,0,0,1-1.087-.421,1.474,1.474,0,0,1-.425-1.023,1.5,1.5,0,0,1,.425-1.035,1.488,1.488,0,0,1,1.061-.438,1.747,1.747,0,0,1,.657.143v.871a.783.783,0,0,0-.635-.307.712.712,0,0,0-.505.185.785.785,0,0,0-.244.577.775.775,0,0,0,.227.547.783.783,0,0,0,.522.193.825.825,0,0,0,.635-.294Z" transform="translate(-51.057 -80.31)" fill="#fff"/>
          <rect id="Rectangle_579" data-name="Rectangle 579" width="0.729" height="2.808" transform="translate(60.983 89.351)" fill="#fff"/>
          <path id="Path_125" data-name="Path 125" d="M122.964,170.321H122.1v.467h.82v.619h-.82v.484h.867v.619h-1.6V169.7h1.6Z" transform="translate(-57.466 -80.351)" fill="#fff"/>
          <path id="Path_126" data-name="Path 126" d="M129.342,170.321v2.189h-.728v-2.189h-.6V169.7h1.924v.619Z" transform="translate(-60.614 -80.351)" fill="#fff"/>
          <path id="Path_127" data-name="Path 127" d="M135.886,171.163l-1.015-1.461h.872l.53.766.51-.766h.884l-1.048,1.461v1.347h-.733Z" transform="translate(-63.86 -80.352)" fill="#fff"/>
          <rect id="Rectangle_580" data-name="Rectangle 580" width="93.59" height="0.364" transform="translate(0 75.191)" fill="#fff"/>
          <path id="Path_128" data-name="Path 128" d="M95.13,31.123l-1.406-1.674-2.617-3.106q-1.193-1.422-2.4-2.843c-.811-.958-1.616-1.922-2.427-2.875-.321-.374-.658-.742-1-1.106a1.477,1.477,0,0,0-.284-.237.62.62,0,0,0-.1-.058,1.357,1.357,0,0,0-.542-.168,2.2,2.2,0,0,0-.553.037,12.117,12.117,0,0,0-1.88.521c-.079.032-.116.042-.153.032h-.016a.431.431,0,0,1-.105-.1c-.105-.126-.205-.253-.311-.379L78.5,15.754q-1.516-1.832-3.043-3.665c-.937-1.132-1.885-2.264-2.827-3.4q-1.516-1.832-3.038-3.665Q68.165,3.315,66.74,1.6c-.232-.279-.463-.553-.711-.853l-.005.005-.132.153Q63.681,3.3,61.465,5.7c-1.285,1.379-2.58,2.748-3.87,4.123a23.017,23.017,0,0,0-1.664,1.848,9.853,9.853,0,0,1-.969,1.127,3.634,3.634,0,0,1-2.132,1c-.706.095-1.411.211-2.117.321-.811.132-1.622.269-2.432.4-.574.1-1.158.19-1.732.305a4.433,4.433,0,0,0-2.754,1.7q-3.436,4.4-6.918,8.756c-1.816,2.275-3.654,4.533-5.481,6.8-.116.142-.226.29-.347.432v.005a.479.479,0,0,0,.216-.032c.395-.147.8-.295,1.2-.437A39.269,39.269,0,0,1,36.892,30.8c1.1-.242,2.19-.463,3.3-.632.627-.1,1.253-.195,1.885-.284.521-.068,1.042-.121,1.564-.174.416-.042.832-.068,1.248-.095.669-.042,1.343-.1,2.011-.111.964-.011,1.927.011,2.891.032.548.011,1.09.047,1.632.079.742.042,1.485.09,2.227.137l.168.016a.005.005,0,0,1,.005-.005c2.185-2.564,8.867-4.833,17.5-5.134C64.755,25.652,59.8,27.837,59.69,30.28v.005c.337.032.679.068,1.016.1l1.327.142c.448.053.89.105,1.332.153s.869.095,1.306.147.858.105,1.285.153c.442.047.885.09,1.332.142.679.079,1.358.163,2.043.237.563.063,1.121.121,1.685.184.727.079,1.448.168,2.175.242.748.074,1.49.147,2.238.211.732.063,1.469.121,2.2.168s1.485.095,2.227.132c.8.037,1.585.074,2.38.079,1.558.021,3.117.032,4.675-.037.274-.011.553-.021.827-.047.727-.063,1.453-.126,2.175-.2.521-.053,1.042-.116,1.558-.184.753-.105,1.5-.221,2.248-.332.469-.068.937-.142,1.406-.216.042-.005.079-.042.132-.068-.053-.068-.084-.121-.126-.168M35.966,30.043q2.543-3.246,5.081-6.5c1.232-1.59,2.448-3.191,3.67-4.791a6.344,6.344,0,0,1,1.29-1.311,3.9,3.9,0,0,1,1.98-.753c.616-.053,1.206-.126,1.832-.211.405-.047.716-.105,1.085-.147.105-.021.5-.111.59-.111-.1.09-.347.279-.4.326-.521.49-1.116,1-1.643,1.485-.737.684-1.474,1.364-2.211,2.048L43.416,23.62c-1.09,1.016-2.175,2.027-3.27,3.043-1.327,1.232-2.359,2.085-3.691,3.322a4.29,4.29,0,0,1-.732.442c.053-.074.179-.311.242-.384M65.487,5.008c-.421,1.127-.837,2.259-1.253,3.385L62.56,12.91l-2.5,6.729q-1.035,2.812-2.074,5.618a.929.929,0,0,1-.095.247.307.307,0,0,1-.111.184c-.653-1.58-1.279-3.349-1.943-4.949-.153.095-.279.174-.4.253q-3.483,2.267-6.961,4.533-2.338,1.516-4.67,3.038c-.026.021-.058.037-.09.058a4.218,4.218,0,0,1-.848.4c.037-.047.553-.616.6-.663.827-.9,1.659-1.806,2.49-2.706q2.1-2.29,4.212-4.586,1.564-1.7,3.127-3.391,1.872-2.03,3.738-4.065,1.6-1.737,3.2-3.47L63.908,6.15c.405-.437.811-.879,1.216-1.311.047-.053.574-.59.584-.527a2.964,2.964,0,0,1-.221.695M83.868,20.966a1.926,1.926,0,0,1-.079.279c-.311.858-.627,1.716-.937,2.575l-1.279,3.491c-.247.684-.5,1.369-.748,2.053-.037.09-.158.395-.211.527a3.649,3.649,0,0,1-.569-.574c-.226-.205-.326-.426-.479-.542a3.822,3.822,0,0,0-1.306-1.19,4.076,4.076,0,0,0-1.458-.442,6.3,6.3,0,0,0-1.543.005c-.5.053-1,.142-1.49.221-.911.147-1.816.305-2.722.453-.832.132-1.664.253-2.5.369-.516.068-1.037.126-1.558.184-.458.053-.911.105-1.369.153-.379.042-.763.068-1.143.1-.079.011-.153.021-.232.026-.032,0-.068.005-.105.005L74.354,24.6l.763-.305.342-.132q1.7-.648,3.385-1.3,2.354-.9,4.7-1.8c.09-.037.184-.063.321-.105" transform="translate(-14.701 -0.354)" fill="#fff"/>
          <path id="Path_129" data-name="Path 129" d="M95.13,31.123l-1.406-1.674-2.617-3.106q-1.193-1.422-2.4-2.843c-.811-.958-1.616-1.922-2.427-2.875-.321-.374-.658-.742-1-1.106a1.477,1.477,0,0,0-.284-.237.62.62,0,0,0-.1-.058,1.357,1.357,0,0,0-.542-.168,2.2,2.2,0,0,0-.553.037,12.117,12.117,0,0,0-1.88.521c-.079.032-.116.042-.153.032h-.016a.431.431,0,0,1-.105-.1c-.105-.126-.205-.253-.311-.379L78.5,15.754q-1.516-1.832-3.043-3.665c-.937-1.132-1.885-2.264-2.827-3.4q-1.516-1.832-3.038-3.665Q68.165,3.315,66.74,1.6c-.232-.279-.463-.553-.711-.853l-.005.005-.132.153Q63.681,3.3,61.465,5.7c-1.285,1.379-2.58,2.748-3.87,4.123a23.017,23.017,0,0,0-1.664,1.848,9.853,9.853,0,0,1-.969,1.127,3.634,3.634,0,0,1-2.132,1c-.706.095-1.411.211-2.117.321-.811.132-1.622.269-2.432.4-.574.1-1.158.19-1.732.305a4.433,4.433,0,0,0-2.754,1.7q-3.436,4.4-6.918,8.756c-1.816,2.275-3.654,4.533-5.481,6.8-.116.142-.226.29-.347.432v.005a.479.479,0,0,0,.216-.032c.395-.147.8-.295,1.2-.437A39.269,39.269,0,0,1,36.892,30.8c1.1-.242,2.19-.463,3.3-.632.627-.1,1.253-.195,1.885-.284.521-.068,1.042-.121,1.564-.174.416-.042.832-.068,1.248-.095.669-.042,1.343-.1,2.011-.111.964-.011,1.927.011,2.891.032.548.011,1.09.047,1.632.079.742.042,1.485.09,2.227.137l.168.016a.005.005,0,0,1,.005-.005c2.185-2.564,8.867-4.833,17.5-5.134C64.755,25.652,59.8,27.837,59.69,30.28v.005c.337.032.679.068,1.016.1l1.327.142c.448.053.89.105,1.332.153s.869.095,1.306.147.858.105,1.285.153c.442.047.885.09,1.332.142.679.079,1.358.163,2.043.237.563.063,1.121.121,1.685.184.727.079,1.448.168,2.175.242.748.074,1.49.147,2.238.211.732.063,1.469.121,2.2.168s1.485.095,2.227.132c.8.037,1.585.074,2.38.079,1.558.021,3.117.032,4.675-.037.274-.011.553-.021.827-.047.727-.063,1.453-.126,2.175-.2.521-.053,1.042-.116,1.558-.184.753-.105,1.5-.221,2.248-.332.469-.068.937-.142,1.406-.216.042-.005.079-.042.132-.068C95.2,31.223,95.172,31.17,95.13,31.123ZM35.966,30.043q2.543-3.246,5.081-6.5c1.232-1.59,2.448-3.191,3.67-4.791a6.344,6.344,0,0,1,1.29-1.311,3.9,3.9,0,0,1,1.98-.753c.616-.053,1.206-.126,1.832-.211.405-.047.716-.105,1.085-.147.105-.021.5-.111.59-.111-.1.09-.347.279-.4.326-.521.49-1.116,1-1.643,1.485-.737.684-1.474,1.364-2.211,2.048L43.416,23.62c-1.09,1.016-2.175,2.027-3.27,3.043-1.327,1.232-2.359,2.085-3.691,3.322a4.29,4.29,0,0,1-.732.442C35.776,30.354,35.9,30.117,35.966,30.043ZM65.487,5.008c-.421,1.127-.837,2.259-1.253,3.385L62.56,12.91l-2.5,6.729q-1.035,2.812-2.074,5.618a.929.929,0,0,1-.095.247.307.307,0,0,1-.111.184c-.653-1.58-1.279-3.349-1.943-4.949-.153.095-.279.174-.4.253q-3.483,2.267-6.961,4.533-2.338,1.516-4.67,3.038c-.026.021-.058.037-.09.058a4.218,4.218,0,0,1-.848.4c.037-.047.553-.616.6-.663.827-.9,1.659-1.806,2.49-2.706q2.1-2.29,4.212-4.586,1.564-1.7,3.127-3.391,1.872-2.03,3.738-4.065,1.6-1.737,3.2-3.47L63.908,6.15c.405-.437.811-.879,1.216-1.311.047-.053.574-.59.584-.527A2.964,2.964,0,0,1,65.487,5.008ZM83.868,20.966a1.926,1.926,0,0,1-.079.279c-.311.858-.627,1.716-.937,2.575l-1.279,3.491c-.247.684-.5,1.369-.748,2.053-.037.09-.158.395-.211.527a3.649,3.649,0,0,1-.569-.574c-.226-.205-.326-.426-.479-.542a3.822,3.822,0,0,0-1.306-1.19,4.076,4.076,0,0,0-1.458-.442,6.3,6.3,0,0,0-1.543.005c-.5.053-1,.142-1.49.221-.911.147-1.816.305-2.722.453-.832.132-1.664.253-2.5.369-.516.068-1.037.126-1.558.184-.458.053-.911.105-1.369.153-.379.042-.763.068-1.143.1-.079.011-.153.021-.232.026-.032,0-.068.005-.105.005L74.354,24.6l.763-.305.342-.132q1.7-.648,3.385-1.3,2.354-.9,4.7-1.8C83.636,21.035,83.731,21.008,83.868,20.966Z" transform="translate(-14.701 -0.354)" fill="none" stroke="#fff" stroke-miterlimit="10" stroke-width="1"/>
          <path id="Path_130" data-name="Path 130" d="M30.308,63.222l.022.038c.084-.029.17-.054.252-.09a18.208,18.208,0,0,1,2.836-.952,31.82,31.82,0,0,1,4.409-.768c.872-.089,1.745-.178,2.62-.24.727-.051,1.457-.085,2.186-.087,1.466,0,2.933.015,4.4.031.5.005,1.005.029,1.507.049.276.012.552.031.827.051q.72.054,1.439.115c.36.031.719.062,1.078.1.45.047.9.1,1.349.154q.78.093,1.558.195c.484.062.968.126,1.452.19l1.768.233,1.452.192c.484.064.968.127,1.452.194.652.09,1.3.182,1.954.273s1.331.188,2,.279q.736.1,1.473.191c.407.051.815.1,1.223.144.429.05.857.1,1.286.151.457.05.915.093,1.372.141.485.052.97.108,1.456.156.507.05,1.015.093,1.522.141.7.066,1.408.142,2.113.2s1.412.1,2.12.127c.757.029,1.515.04,2.273.048.609.007,1.219.013,1.829-.007.7-.023,1.4-.073,2.1-.116.445-.027.891-.049,1.334-.1.795-.085,1.589-.176,2.38-.288.742-.1,1.484-.223,2.22-.362A34.53,34.53,0,0,0,93.7,62.556a23.372,23.372,0,0,0,3.289-1.324c.122-.061.236-.137.353-.205-.534.081-1.05.2-1.571.3q-1.616.306-3.236.59c-1.276.225-2.565.351-3.856.451-.727.056-1.455.091-2.183.131-.587.032-1.174.067-1.761.079-.721.015-1.442.036-2.163.018-.743-.019-1.487-.027-2.231-.046-.5-.012-.991-.033-1.486-.053-.219-.009-.438-.025-.657-.039s-.466-.031-.7-.048L76,62.294c-.381-.031-.762-.061-1.143-.1-.507-.048-1.014-.1-1.52-.154-.45-.047-.9-.091-1.351-.142q-.854-.1-1.707-.2-.758-.092-1.516-.191c-.589-.076-1.178-.155-1.768-.231-.512-.066-1.025-.131-1.537-.2-.47-.061-.939-.125-1.409-.187s-.954-.123-1.431-.184l-1.558-.2c-.519-.066-1.039-.133-1.558-.2-.414-.051-.829-.1-1.244-.145l-1.265-.144c-.457-.051-.914-.1-1.371-.151-.485-.05-.971-.1-1.457-.143-.521-.051-1.041-.106-1.563-.154q-.635-.057-1.27-.1c-.657-.042-1.314-.092-1.971-.111-.68-.02-1.361-.009-2.041-.009-.369,0-.738-.006-1.106.01-.721.032-1.442.075-2.163.118-.459.027-.919.051-1.377.1-.718.071-1.434.158-2.151.241-.978.112-1.947.279-2.911.475a25.763,25.763,0,0,0-4.185,1.183,11.418,11.418,0,0,0-2.768,1.472c-.117.088-.231.18-.346.269" transform="translate(-14.35 -28.104)" fill="#fff"/>
          <path id="Path_131" data-name="Path 131" d="M30.308,63.222l.022.038c.084-.029.17-.054.252-.09a18.208,18.208,0,0,1,2.836-.952,31.82,31.82,0,0,1,4.409-.768c.872-.089,1.745-.178,2.62-.24.727-.051,1.457-.085,2.186-.087,1.466,0,2.933.015,4.4.031.5.005,1.005.029,1.507.049.276.012.552.031.827.051q.72.054,1.439.115c.36.031.719.062,1.078.1.45.047.9.1,1.349.154q.78.093,1.558.195c.484.062.968.126,1.452.19l1.768.233,1.452.192c.484.064.968.127,1.452.194.652.09,1.3.182,1.954.273s1.331.188,2,.279q.736.1,1.473.191c.407.051.815.1,1.223.144.429.05.857.1,1.286.151.457.05.915.093,1.372.141.485.052.97.108,1.456.156.507.05,1.015.093,1.522.141.7.066,1.408.142,2.113.2s1.412.1,2.12.127c.757.029,1.515.04,2.273.048.609.007,1.219.013,1.829-.007.7-.023,1.4-.073,2.1-.116.445-.027.891-.049,1.334-.1.795-.085,1.589-.176,2.38-.288.742-.1,1.484-.223,2.22-.362A34.53,34.53,0,0,0,93.7,62.556a23.372,23.372,0,0,0,3.289-1.324c.122-.061.236-.137.353-.205-.534.081-1.05.2-1.571.3q-1.616.306-3.236.59c-1.276.225-2.565.351-3.856.451-.727.056-1.455.091-2.183.131-.587.032-1.174.067-1.761.079-.721.015-1.442.036-2.163.018-.743-.019-1.487-.027-2.231-.046-.5-.012-.991-.033-1.486-.053-.219-.009-.438-.025-.657-.039s-.466-.031-.7-.048L76,62.294c-.381-.031-.762-.061-1.143-.1-.507-.048-1.014-.1-1.52-.154-.45-.047-.9-.091-1.351-.142q-.854-.1-1.707-.2-.758-.092-1.516-.191c-.589-.076-1.178-.155-1.768-.231-.512-.066-1.025-.131-1.537-.2-.47-.061-.939-.125-1.409-.187s-.954-.123-1.431-.184l-1.558-.2c-.519-.066-1.039-.133-1.558-.2-.414-.051-.829-.1-1.244-.145l-1.265-.144c-.457-.051-.914-.1-1.371-.151-.485-.05-.971-.1-1.457-.143-.521-.051-1.041-.106-1.563-.154q-.635-.057-1.27-.1c-.657-.042-1.314-.092-1.971-.111-.68-.02-1.361-.009-2.041-.009-.369,0-.738-.006-1.106.01-.721.032-1.442.075-2.163.118-.459.027-.919.051-1.377.1-.718.071-1.434.158-2.151.241-.978.112-1.947.279-2.911.475a25.763,25.763,0,0,0-4.185,1.183,11.418,11.418,0,0,0-2.768,1.472C30.538,63.041,30.423,63.133,30.308,63.222Z" transform="translate(-14.35 -28.104)" fill="none" stroke="#fff" stroke-miterlimit="10" stroke-width="1"/>
          <path id="Path_132" data-name="Path 132" d="M36.891,69.7c0,.013.009.025.014.037.087-.017.176-.032.263-.051.609-.132,1.215-.276,1.826-.393a31.425,31.425,0,0,1,4.259-.462c.523-.027,1.048-.037,1.572-.037.694,0,1.388.015,2.082.031.453.01.906.029,1.359.049.269.011.538.027.806.047q.742.054,1.482.114c.36.03.719.065,1.078.1.5.049,1,.1,1.5.153.345.035.69.065,1.035.1q.718.074,1.435.155c.422.046.843.093,1.265.145.5.062,1.01.13,1.515.194.611.077,1.222.151,1.832.229s1.234.161,1.851.242l1.452.188q.768.1,1.536.194c.407.051.815.1,1.222.146.429.051.857.1,1.286.151s.886.1,1.329.144c.493.052.985.1,1.478.153.373.036.747.065,1.12.1.542.051,1.084.106,1.627.154.43.037.861.064,1.291.1.656.051,1.312.111,1.968.155.551.037,1.1.064,1.654.084.594.022,1.189.041,1.784.042.666,0,1.332-.011,2-.029.736-.021,1.472-.045,2.207-.088s1.484-.093,2.221-.174c.829-.091,1.656-.205,2.48-.335a22.756,22.756,0,0,0,4.663-1.264c.048-.018.094-.044.183-.086a1.425,1.425,0,0,0-.567.041c-.623.087-1.245.191-1.869.267-.512.063-1.028.1-1.543.138-.728.048-1.456.11-2.184.114-1.275.007-2.549-.022-3.825-.042-.346-.005-.693-.026-1.039-.048-.558-.035-1.116-.075-1.673-.114-.438-.031-.876-.061-1.313-.1-.416-.034-.831-.076-1.247-.112-.55-.048-1.1-.089-1.65-.143-.6-.059-1.2-.129-1.793-.2q-.959-.11-1.918-.227c-.625-.077-1.248-.162-1.873-.24s-1.25-.151-1.874-.229c-.73-.092-1.46-.19-2.189-.281-.758-.094-1.517-.181-2.276-.274-.73-.09-1.459-.19-2.189-.277q-1.138-.135-2.278-.254c-.872-.091-1.745-.178-2.619-.255-.754-.067-1.51-.119-2.265-.172-.663-.046-1.327-.092-1.991-.126-.7-.036-1.4-.078-2.1-.083q-1.6-.01-3.209.03c-.785.021-1.57.071-2.353.131-.747.058-1.495.128-2.238.224a22.908,22.908,0,0,0-3.285.657,17.351,17.351,0,0,0-2.715.978c-.2.095-.4.2-.595.306" transform="translate(-17.467 -31.9)" fill="#fff"/>
          <path id="Path_133" data-name="Path 133" d="M36.891,69.7c0,.013.009.025.014.037.087-.017.176-.032.263-.051.609-.132,1.215-.276,1.826-.393a31.425,31.425,0,0,1,4.259-.462c.523-.027,1.048-.037,1.572-.037.694,0,1.388.015,2.082.031.453.01.906.029,1.359.049.269.011.538.027.806.047q.742.054,1.482.114c.36.03.719.065,1.078.1.5.049,1,.1,1.5.153.345.035.69.065,1.035.1q.718.074,1.435.155c.422.046.843.093,1.265.145.5.062,1.01.13,1.515.194.611.077,1.222.151,1.832.229s1.234.161,1.851.242l1.452.188q.768.1,1.536.194c.407.051.815.1,1.222.146.429.051.857.1,1.286.151s.886.1,1.329.144c.493.052.985.1,1.478.153.373.036.747.065,1.12.1.542.051,1.084.106,1.627.154.43.037.861.064,1.291.1.656.051,1.312.111,1.968.155.551.037,1.1.064,1.654.084.594.022,1.189.041,1.784.042.666,0,1.332-.011,2-.029.736-.021,1.472-.045,2.207-.088s1.484-.093,2.221-.174c.829-.091,1.656-.205,2.48-.335a22.756,22.756,0,0,0,4.663-1.264c.048-.018.094-.044.183-.086a1.425,1.425,0,0,0-.567.041c-.623.087-1.245.191-1.869.267-.512.063-1.028.1-1.543.138-.728.048-1.456.11-2.184.114-1.275.007-2.549-.022-3.825-.042-.346-.005-.693-.026-1.039-.048-.558-.035-1.116-.075-1.673-.114-.438-.031-.876-.061-1.313-.1-.416-.034-.831-.076-1.247-.112-.55-.048-1.1-.089-1.65-.143-.6-.059-1.2-.129-1.793-.2q-.959-.11-1.918-.227c-.625-.077-1.248-.162-1.873-.24s-1.25-.151-1.874-.229c-.73-.092-1.46-.19-2.189-.281-.758-.094-1.517-.181-2.276-.274-.73-.09-1.459-.19-2.189-.277q-1.138-.135-2.278-.254c-.872-.091-1.745-.178-2.619-.255-.754-.067-1.51-.119-2.265-.172-.663-.046-1.327-.092-1.991-.126-.7-.036-1.4-.078-2.1-.083q-1.6-.01-3.209.03c-.785.021-1.57.071-2.353.131-.747.058-1.495.128-2.238.224a22.908,22.908,0,0,0-3.285.657,17.351,17.351,0,0,0-2.715.978C37.284,69.488,37.089,69.6,36.891,69.7Z" transform="translate(-17.467 -31.9)" fill="none" stroke="#fff" stroke-miterlimit="10" stroke-width="1"/>
          <path id="Path_134" data-name="Path 134" d="M89.729,77.235c-.141,0-.283,0-.424,0-.73.013-1.459.042-2.189.041-1.46,0-2.92-.021-4.379-.038-.545-.007-1.09-.032-1.635-.049l-.085,0-2.035-.113c-.361-.019-.721-.034-1.082-.054-.219-.013-.438-.029-.657-.047l-1.354-.111c-.409-.033-.819-.059-1.228-.1-.619-.06-1.238-.128-1.857-.2-.527-.058-1.055-.118-1.581-.185-.59-.075-1.178-.16-1.766-.241-.652-.09-1.3-.178-1.954-.271-.736-.105-1.47-.219-2.205-.321-.9-.123-1.795-.239-2.693-.354-.75-.1-1.5-.195-2.252-.283-.576-.068-1.153-.127-1.73-.182-.747-.072-1.493-.146-2.241-.2-.636-.045-1.273-.071-1.91-.087-.878-.023-1.756-.035-2.635-.043-.3,0-.594.015-.892.028-.679.028-1.359.04-2.036.094-.818.064-1.634.155-2.448.253a28.687,28.687,0,0,0-3.231.606c-.175.042-.347.1-.521.144a4.058,4.058,0,0,0,.62,0c.792-.032,1.585-.081,2.378-.087,1.012-.008,2.026.015,3.039.032.489.008.977.031,1.465.051.241.009.481.027.72.047q.867.075,1.733.157c.465.044.93.086,1.394.142.6.073,1.192.156,1.787.241.728.1,1.456.211,2.183.325.818.128,1.634.265,2.45.4s1.6.271,2.407.406c.865.147,1.729.3,2.595.442.837.139,1.675.276,2.514.406.636.1,1.274.19,1.911.276.483.065.968.122,1.453.177s.984.111,1.477.156c.444.041.889.07,1.334.1.614.041,1.229.1,1.844.11,1.388.022,2.778.057,4.166-.028.657-.039,1.315-.071,1.97-.131.768-.07,1.534-.158,2.3-.254a27.823,27.823,0,0,0,3.068-.559,13.44,13.44,0,0,0,2.214-.693" transform="translate(-20.222 -35.226)" fill="#fff"/>
          <path id="Path_135" data-name="Path 135" d="M89.729,77.235c-.141,0-.283,0-.424,0-.73.013-1.459.042-2.189.041-1.46,0-2.92-.021-4.379-.038-.545-.007-1.09-.032-1.635-.049l-.085,0-2.035-.113c-.361-.019-.721-.034-1.082-.054-.219-.013-.438-.029-.657-.047l-1.354-.111c-.409-.033-.819-.059-1.228-.1-.619-.06-1.238-.128-1.857-.2-.527-.058-1.055-.118-1.581-.185-.59-.075-1.178-.16-1.766-.241-.652-.09-1.3-.178-1.954-.271-.736-.105-1.47-.219-2.205-.321-.9-.123-1.795-.239-2.693-.354-.75-.1-1.5-.195-2.252-.283-.576-.068-1.153-.127-1.73-.182-.747-.072-1.493-.146-2.241-.2-.636-.045-1.273-.071-1.91-.087-.878-.023-1.756-.035-2.635-.043-.3,0-.594.015-.892.028-.679.028-1.359.04-2.036.094-.818.064-1.634.155-2.448.253a28.687,28.687,0,0,0-3.231.606c-.175.042-.347.1-.521.144a4.058,4.058,0,0,0,.62,0c.792-.032,1.585-.081,2.378-.087,1.012-.008,2.026.015,3.039.032.489.008.977.031,1.465.051.241.009.481.027.72.047q.867.075,1.733.157c.465.044.93.086,1.394.142.6.073,1.192.156,1.787.241.728.1,1.456.211,2.183.325.818.128,1.634.265,2.45.4s1.6.271,2.407.406c.865.147,1.729.3,2.595.442.837.139,1.675.276,2.514.406.636.1,1.274.19,1.911.276.483.065.968.122,1.453.177s.984.111,1.477.156c.444.041.889.07,1.334.1.614.041,1.229.1,1.844.11,1.388.022,2.778.057,4.166-.028.657-.039,1.315-.071,1.97-.131.768-.07,1.534-.158,2.3-.254a27.823,27.823,0,0,0,3.068-.559A13.44,13.44,0,0,0,89.729,77.235Z" transform="translate(-20.222 -35.226)" fill="none" stroke="#fff" stroke-miterlimit="10" stroke-width="1"/>
          <path id="Path_136" data-name="Path 136" d="M95.1,31.113,93.69,29.438l-2.617-3.106q-1.193-1.422-2.4-2.843c-.811-.958-1.616-1.922-2.427-2.875-.321-.374-.658-.742-1-1.106a1.568,1.568,0,0,0-.269-.232.62.62,0,0,0-.1-.058,1.357,1.357,0,0,0-.542-.168,1.9,1.9,0,0,0-.569.032,12.116,12.116,0,0,0-1.88.521.535.535,0,0,1-.137.037h-.016c-.037-.011-.068-.042-.121-.105-.105-.126-.205-.253-.311-.379l-2.843-3.412q-1.516-1.832-3.043-3.665L72.6,8.683q-1.516-1.832-3.038-3.665L66.7,1.591c-.221-.274-.453-.548-.695-.842L65.995.738,65.858.9Q63.647,3.289,61.43,5.687c-1.285,1.379-2.58,2.748-3.87,4.123A22.944,22.944,0,0,0,55.9,11.653a9.473,9.473,0,0,1-.969,1.132,3.634,3.634,0,0,1-2.132,1c-.706.095-1.411.211-2.117.321-.811.132-1.622.269-2.432.4-.579.1-1.158.19-1.732.305a4.433,4.433,0,0,0-2.754,1.7q-3.436,4.4-6.918,8.756c-1.816,2.275-3.654,4.533-5.481,6.8-.121.142-.232.29-.353.437h.021v.005a.589.589,0,0,0,.2-.037c.395-.147.8-.295,1.2-.437a39.269,39.269,0,0,1,4.433-1.243c1.09-.242,2.19-.463,3.291-.632.632-.1,1.258-.195,1.89-.284.521-.068,1.042-.121,1.564-.174.416-.042.832-.068,1.248-.095.669-.042,1.343-.1,2.011-.111.964-.011,1.927.011,2.891.032.548.011,1.09.047,1.632.079.742.042,1.485.09,2.227.137l.19.016c2.185-2.564,8.867-4.833,17.5-5.134-6.566,1.021-11.525,3.206-11.631,5.65.332.032.669.068,1,.1L62,30.518c.442.053.885.105,1.332.153.432.053.869.095,1.306.147s.858.105,1.285.153c.442.047.885.09,1.332.142.679.079,1.358.163,2.043.237.563.063,1.121.121,1.685.184.727.079,1.448.168,2.175.242.742.074,1.49.147,2.238.211.732.063,1.469.121,2.2.168s1.485.095,2.227.132c.79.037,1.585.074,2.38.079,1.558.021,3.117.032,4.675-.037.274-.011.553-.021.827-.047.727-.063,1.448-.126,2.175-.2.521-.053,1.043-.116,1.558-.184.753-.105,1.5-.221,2.248-.332.469-.068.937-.142,1.406-.216.042-.005.079-.042.132-.068-.053-.068-.084-.121-.126-.168M40.127,26.658c-1.327,1.232-2.359,2.085-3.691,3.322a4.29,4.29,0,0,1-.732.442c.053-.074.179-.311.242-.384q2.543-3.246,5.081-6.5c1.232-1.59,2.448-3.191,3.67-4.791a6.344,6.344,0,0,1,1.29-1.311,3.9,3.9,0,0,1,1.98-.753c.616-.053,1.206-.126,1.832-.211.405-.047.716-.105,1.085-.147.105-.021.5-.111.59-.111-.1.09-.347.279-.4.326-.521.49-1.116,1-1.643,1.485-.737.684-1.474,1.364-2.211,2.048L43.4,23.615c-1.09,1.016-2.175,2.027-3.27,3.043M65.468,5c-.421,1.127-.837,2.259-1.253,3.385l-1.674,4.517-2.5,6.729q-1.035,2.812-2.074,5.618a.929.929,0,0,1-.095.247.307.307,0,0,1-.111.184c-.653-1.58-1.279-3.349-1.943-4.949-.153.095-.279.174-.4.253q-3.483,2.267-6.961,4.533-2.338,1.516-4.67,3.038c-.026.021-.058.037-.09.058a4.218,4.218,0,0,1-.848.4c.037-.047.553-.616.6-.663.827-.9,1.659-1.806,2.49-2.706q2.1-2.29,4.212-4.586,1.564-1.7,3.127-3.391,1.872-2.03,3.738-4.065,1.6-1.737,3.2-3.47l3.665-3.991c.405-.437.811-.879,1.216-1.311.047-.053.574-.59.584-.527A2.964,2.964,0,0,1,65.468,5M83.77,21.24c-.311.858-.627,1.716-.937,2.575l-1.279,3.491c-.247.684-.5,1.369-.748,2.053-.037.09-.158.395-.211.527a3.649,3.649,0,0,1-.569-.574c-.226-.205-.326-.426-.479-.542a3.822,3.822,0,0,0-1.306-1.19,4.076,4.076,0,0,0-1.458-.442,6.3,6.3,0,0,0-1.543.005c-.5.053-1,.142-1.49.221-.911.147-1.816.305-2.722.453-.832.132-1.664.253-2.5.369-.516.068-1.037.126-1.558.184-.458.053-.911.105-1.369.153-.379.042-.763.068-1.143.1-.079.011-.153.021-.232.026-.032,0-.068.005-.105.005L74.335,24.6l.763-.305.342-.132q1.7-.648,3.385-1.3,2.354-.9,4.7-1.8c.09-.037.184-.063.321-.105a1.926,1.926,0,0,1-.079.279" transform="translate(-14.682 -0.349)" fill="#fff"/>
          <path id="Path_137" data-name="Path 137" d="M95.1,31.113,93.69,29.438l-2.617-3.106q-1.193-1.422-2.4-2.843c-.811-.958-1.616-1.922-2.427-2.875-.321-.374-.658-.742-1-1.106a1.568,1.568,0,0,0-.269-.232.62.62,0,0,0-.1-.058,1.357,1.357,0,0,0-.542-.168,1.9,1.9,0,0,0-.569.032,12.116,12.116,0,0,0-1.88.521.535.535,0,0,1-.137.037h-.016c-.037-.011-.068-.042-.121-.105-.105-.126-.205-.253-.311-.379l-2.843-3.412q-1.516-1.832-3.043-3.665L72.6,8.683q-1.516-1.832-3.038-3.665L66.7,1.591c-.221-.274-.453-.548-.695-.842L65.995.738,65.858.9Q63.647,3.289,61.43,5.687c-1.285,1.379-2.58,2.748-3.87,4.123A22.944,22.944,0,0,0,55.9,11.653a9.473,9.473,0,0,1-.969,1.132,3.634,3.634,0,0,1-2.132,1c-.706.095-1.411.211-2.117.321-.811.132-1.622.269-2.432.4-.579.1-1.158.19-1.732.305a4.433,4.433,0,0,0-2.754,1.7q-3.436,4.4-6.918,8.756c-1.816,2.275-3.654,4.533-5.481,6.8-.121.142-.232.29-.353.437h.021v.005a.589.589,0,0,0,.2-.037c.395-.147.8-.295,1.2-.437a39.269,39.269,0,0,1,4.433-1.243c1.09-.242,2.19-.463,3.291-.632.632-.1,1.258-.195,1.89-.284.521-.068,1.042-.121,1.564-.174.416-.042.832-.068,1.248-.095.669-.042,1.343-.1,2.011-.111.964-.011,1.927.011,2.891.032.548.011,1.09.047,1.632.079.742.042,1.485.09,2.227.137l.19.016c2.185-2.564,8.867-4.833,17.5-5.134-6.566,1.021-11.525,3.206-11.631,5.65.332.032.669.068,1,.1L62,30.518c.442.053.885.105,1.332.153.432.053.869.095,1.306.147s.858.105,1.285.153c.442.047.885.09,1.332.142.679.079,1.358.163,2.043.237.563.063,1.121.121,1.685.184.727.079,1.448.168,2.175.242.742.074,1.49.147,2.238.211.732.063,1.469.121,2.2.168s1.485.095,2.227.132c.79.037,1.585.074,2.38.079,1.558.021,3.117.032,4.675-.037.274-.011.553-.021.827-.047.727-.063,1.448-.126,2.175-.2.521-.053,1.043-.116,1.558-.184.753-.105,1.5-.221,2.248-.332.469-.068.937-.142,1.406-.216.042-.005.079-.042.132-.068C95.169,31.213,95.137,31.16,95.1,31.113ZM40.127,26.658c-1.327,1.232-2.359,2.085-3.691,3.322a4.29,4.29,0,0,1-.732.442c.053-.074.179-.311.242-.384q2.543-3.246,5.081-6.5c1.232-1.59,2.448-3.191,3.67-4.791a6.344,6.344,0,0,1,1.29-1.311,3.9,3.9,0,0,1,1.98-.753c.616-.053,1.206-.126,1.832-.211.405-.047.716-.105,1.085-.147.105-.021.5-.111.59-.111-.1.09-.347.279-.4.326-.521.49-1.116,1-1.643,1.485-.737.684-1.474,1.364-2.211,2.048L43.4,23.615C42.307,24.631,41.222,25.642,40.127,26.658ZM65.468,5c-.421,1.127-.837,2.259-1.253,3.385l-1.674,4.517-2.5,6.729q-1.035,2.812-2.074,5.618a.929.929,0,0,1-.095.247.307.307,0,0,1-.111.184c-.653-1.58-1.279-3.349-1.943-4.949-.153.095-.279.174-.4.253q-3.483,2.267-6.961,4.533-2.338,1.516-4.67,3.038c-.026.021-.058.037-.09.058a4.218,4.218,0,0,1-.848.4c.037-.047.553-.616.6-.663.827-.9,1.659-1.806,2.49-2.706q2.1-2.29,4.212-4.586,1.564-1.7,3.127-3.391,1.872-2.03,3.738-4.065,1.6-1.737,3.2-3.47l3.665-3.991c.405-.437.811-.879,1.216-1.311.047-.053.574-.59.584-.527A2.964,2.964,0,0,1,65.468,5ZM83.77,21.24c-.311.858-.627,1.716-.937,2.575l-1.279,3.491c-.247.684-.5,1.369-.748,2.053-.037.09-.158.395-.211.527a3.649,3.649,0,0,1-.569-.574c-.226-.205-.326-.426-.479-.542a3.822,3.822,0,0,0-1.306-1.19,4.076,4.076,0,0,0-1.458-.442,6.3,6.3,0,0,0-1.543.005c-.5.053-1,.142-1.49.221-.911.147-1.816.305-2.722.453-.832.132-1.664.253-2.5.369-.516.068-1.037.126-1.558.184-.458.053-.911.105-1.369.153-.379.042-.763.068-1.143.1-.079.011-.153.021-.232.026-.032,0-.068.005-.105.005L74.335,24.6l.763-.305.342-.132q1.7-.648,3.385-1.3,2.354-.9,4.7-1.8c.09-.037.184-.063.321-.105A1.926,1.926,0,0,1,83.77,21.24Z" transform="translate(-14.682 -0.349)" fill="none" stroke="#fff" stroke-miterlimit="10" stroke-width="1"/>
          <path id="Path_138" data-name="Path 138" d="M30.2,63.649c.115-.09.23-.181.346-.269a11.4,11.4,0,0,1,2.768-1.473A25.762,25.762,0,0,1,37.5,60.726c.964-.2,1.933-.363,2.911-.475.717-.083,1.434-.17,2.151-.241.458-.046.918-.07,1.377-.1.721-.043,1.442-.086,2.163-.118.368-.017.737-.011,1.106-.011.68,0,1.361-.01,2.041.009.658.019,1.314.07,1.971.112q.636.04,1.27.1c.521.047,1.041.1,1.563.154.486.048.972.094,1.457.144.458.047.914.1,1.371.151l1.265.143c.415.048.83.095,1.244.145.52.063,1.039.13,1.558.2s1.039.132,1.558.2q.716.091,1.431.184c.47.061.94.125,1.409.186.512.067,1.025.131,1.537.2.589.077,1.178.156,1.768.231.5.065,1.01.13,1.516.191q.853.105,1.707.2c.45.051.9.1,1.351.142.507.052,1.013.106,1.52.154.381.036.762.066,1.143.1l1.5.117.7.048c.219.014.438.03.657.039.5.02.991.041,1.486.053.744.018,1.488.026,2.231.045.721.019,1.442,0,2.163-.017.588-.013,1.175-.048,1.761-.08.728-.04,1.456-.075,2.183-.131,1.291-.1,2.58-.225,3.856-.451q1.62-.286,3.236-.59c.521-.1,1.036-.222,1.571-.3-.117.069-.232.145-.353.205a23.245,23.245,0,0,1-3.289,1.324,34.53,34.53,0,0,1-4.134,1.046c-.737.14-1.478.259-2.22.363-.791.111-1.586.2-2.38.287-.443.048-.889.071-1.334.1-.7.042-1.4.092-2.1.115-.609.02-1.219.014-1.829.007-.758-.008-1.516-.018-2.273-.048-.708-.028-1.414-.073-2.12-.128s-1.409-.13-2.113-.2c-.507-.048-1.015-.091-1.522-.141-.485-.048-.97-.1-1.456-.156-.457-.048-.915-.091-1.372-.141-.429-.047-.857-.1-1.286-.151-.408-.048-.816-.093-1.223-.144q-.737-.092-1.473-.191c-.666-.091-1.331-.185-2-.279s-1.3-.183-1.954-.273q-.725-.1-1.452-.194L57.9,62.667l-1.768-.233c-.484-.063-.968-.128-1.452-.19-.519-.067-1.039-.133-1.558-.194-.449-.055-.9-.107-1.349-.154-.359-.037-.719-.069-1.078-.1q-.719-.059-1.439-.115c-.275-.02-.551-.039-.827-.051-.5-.021-1-.045-1.507-.049-1.467-.016-2.934-.036-4.4-.032-.729,0-1.459.036-2.186.087-.875.062-1.748.151-2.62.24a31.82,31.82,0,0,0-4.409.768,18.155,18.155,0,0,0-2.836.953c-.082.035-.167.06-.252.09l-.022-.039" transform="translate(-14.298 -28.307)" fill="#fff"/>
          <path id="Path_139" data-name="Path 139" d="M30.2,63.649c.115-.09.23-.181.346-.269a11.4,11.4,0,0,1,2.768-1.473A25.762,25.762,0,0,1,37.5,60.726c.964-.2,1.933-.363,2.911-.475.717-.083,1.434-.17,2.151-.241.458-.046.918-.07,1.377-.1.721-.043,1.442-.086,2.163-.118.368-.017.737-.011,1.106-.011.68,0,1.361-.01,2.041.009.658.019,1.314.07,1.971.112q.636.04,1.27.1c.521.047,1.041.1,1.563.154.486.048.972.094,1.457.144.458.047.914.1,1.371.151l1.265.143c.415.048.83.095,1.244.145.52.063,1.039.13,1.558.2s1.039.132,1.558.2q.716.091,1.431.184c.47.061.94.125,1.409.186.512.067,1.025.131,1.537.2.589.077,1.178.156,1.768.231.5.065,1.01.13,1.516.191q.853.105,1.707.2c.45.051.9.1,1.351.142.507.052,1.013.106,1.52.154.381.036.762.066,1.143.1l1.5.117.7.048c.219.014.438.03.657.039.5.02.991.041,1.486.053.744.018,1.488.026,2.231.045.721.019,1.442,0,2.163-.017.588-.013,1.175-.048,1.761-.08.728-.04,1.456-.075,2.183-.131,1.291-.1,2.58-.225,3.856-.451q1.62-.286,3.236-.59c.521-.1,1.036-.222,1.571-.3-.117.069-.232.145-.353.205a23.245,23.245,0,0,1-3.289,1.324,34.53,34.53,0,0,1-4.134,1.046c-.737.14-1.478.259-2.22.363-.791.111-1.586.2-2.38.287-.443.048-.889.071-1.334.1-.7.042-1.4.092-2.1.115-.609.02-1.219.014-1.829.007-.758-.008-1.516-.018-2.273-.048-.708-.028-1.414-.073-2.12-.128s-1.409-.13-2.113-.2c-.507-.048-1.015-.091-1.522-.141-.485-.048-.97-.1-1.456-.156-.457-.048-.915-.091-1.372-.141-.429-.047-.857-.1-1.286-.151-.408-.048-.816-.093-1.223-.144q-.737-.092-1.473-.191c-.666-.091-1.331-.185-2-.279s-1.3-.183-1.954-.273q-.725-.1-1.452-.194L57.9,62.667l-1.768-.233c-.484-.063-.968-.128-1.452-.19-.519-.067-1.039-.133-1.558-.194-.449-.055-.9-.107-1.349-.154-.359-.037-.719-.069-1.078-.1q-.719-.059-1.439-.115c-.275-.02-.551-.039-.827-.051-.5-.021-1-.045-1.507-.049-1.467-.016-2.934-.036-4.4-.032-.729,0-1.459.036-2.186.087-.875.062-1.748.151-2.62.24a31.82,31.82,0,0,0-4.409.768,18.155,18.155,0,0,0-2.836.953c-.082.035-.167.06-.252.09Z" transform="translate(-14.298 -28.307)" fill="none" stroke="#fff" stroke-miterlimit="10" stroke-width="1"/>
          <path id="Path_140" data-name="Path 140" d="M36.061,69.388c.2-.1.4-.207.6-.3a17.471,17.471,0,0,1,2.725-.951,23.021,23.021,0,0,1,3.292-.624c.744-.088,1.492-.151,2.24-.2.783-.053,1.569-.1,2.354-.108q1.6-.026,3.209,0c.7.012,1.4.061,2.1.1.664.041,1.327.093,1.99.146.755.061,1.51.121,2.263.194.873.085,1.745.182,2.616.282q1.139.13,2.275.276c.73.094,1.457.2,2.187.3.758.1,1.516.195,2.273.3.729.1,1.457.2,2.187.3.624.085,1.248.163,1.872.247s1.247.175,1.871.259,1.277.166,1.915.245c.6.074,1.193.15,1.791.215.549.06,1.1.105,1.649.159.415.041.83.086,1.246.125.437.039.875.074,1.312.109.557.045,1.114.091,1.672.131.346.025.693.049,1.039.058,1.275.032,2.549.074,3.824.079.728,0,1.457-.051,2.185-.092.515-.029,1.031-.066,1.544-.123.626-.07,1.248-.168,1.872-.25a1.435,1.435,0,0,1,.568-.035c-.09.042-.135.067-.184.085a22.749,22.749,0,0,1-4.675,1.218c-.826.122-1.654.228-2.484.311-.739.074-1.481.116-2.223.152s-1.472.053-2.208.066c-.666.013-1.332.018-2,.01-.595-.007-1.19-.032-1.784-.059-.551-.026-1.1-.058-1.653-.1-.656-.051-1.31-.117-1.966-.175-.43-.038-.861-.069-1.29-.111-.542-.053-1.084-.114-1.625-.17-.373-.038-.747-.071-1.119-.111-.492-.053-.984-.11-1.476-.167q-.664-.077-1.328-.157c-.428-.053-.856-.108-1.284-.164-.407-.052-.814-.1-1.221-.158q-.768-.1-1.534-.209-.725-.1-1.451-.2c-.616-.086-1.232-.175-1.849-.26s-1.22-.164-1.83-.246c-.5-.069-1.008-.142-1.513-.209-.421-.056-.842-.107-1.264-.157q-.716-.087-1.433-.169c-.344-.039-.689-.073-1.034-.111-.5-.055-1-.113-1.5-.167-.359-.039-.718-.078-1.077-.111q-.74-.069-1.48-.129c-.268-.022-.537-.041-.805-.055-.453-.024-.906-.048-1.358-.062-.694-.022-1.388-.044-2.082-.051-.524-.006-1.049,0-1.572.021a31.441,31.441,0,0,0-4.263.42c-.613.111-1.22.25-1.83.375-.087.018-.176.032-.264.048l-.013-.037" transform="translate(-17.074 -31.813)" fill="#fff"/>
          <path id="Path_141" data-name="Path 141" d="M36.061,69.388c.2-.1.4-.207.6-.3a17.471,17.471,0,0,1,2.725-.951,23.021,23.021,0,0,1,3.292-.624c.744-.088,1.492-.151,2.24-.2.783-.053,1.569-.1,2.354-.108q1.6-.026,3.209,0c.7.012,1.4.061,2.1.1.664.041,1.327.093,1.99.146.755.061,1.51.121,2.263.194.873.085,1.745.182,2.616.282q1.139.13,2.275.276c.73.094,1.457.2,2.187.3.758.1,1.516.195,2.273.3.729.1,1.457.2,2.187.3.624.085,1.248.163,1.872.247s1.247.175,1.871.259,1.277.166,1.915.245c.6.074,1.193.15,1.791.215.549.06,1.1.105,1.649.159.415.041.83.086,1.246.125.437.039.875.074,1.312.109.557.045,1.114.091,1.672.131.346.025.693.049,1.039.058,1.275.032,2.549.074,3.824.079.728,0,1.457-.051,2.185-.092.515-.029,1.031-.066,1.544-.123.626-.07,1.248-.168,1.872-.25a1.435,1.435,0,0,1,.568-.035c-.09.042-.135.067-.184.085a22.749,22.749,0,0,1-4.675,1.218c-.826.122-1.654.228-2.484.311-.739.074-1.481.116-2.223.152s-1.472.053-2.208.066c-.666.013-1.332.018-2,.01-.595-.007-1.19-.032-1.784-.059-.551-.026-1.1-.058-1.653-.1-.656-.051-1.31-.117-1.966-.175-.43-.038-.861-.069-1.29-.111-.542-.053-1.084-.114-1.625-.17-.373-.038-.747-.071-1.119-.111-.492-.053-.984-.11-1.476-.167q-.664-.077-1.328-.157c-.428-.053-.856-.108-1.284-.164-.407-.052-.814-.1-1.221-.158q-.768-.1-1.534-.209-.725-.1-1.451-.2c-.616-.086-1.232-.175-1.849-.26s-1.22-.164-1.83-.246c-.5-.069-1.008-.142-1.513-.209-.421-.056-.842-.107-1.264-.157q-.716-.087-1.433-.169c-.344-.039-.689-.073-1.034-.111-.5-.055-1-.113-1.5-.167-.359-.039-.718-.078-1.077-.111q-.74-.069-1.48-.129c-.268-.022-.537-.041-.805-.055-.453-.024-.906-.048-1.358-.062-.694-.022-1.388-.044-2.082-.051-.524-.006-1.049,0-1.572.021a31.441,31.441,0,0,0-4.263.42c-.613.111-1.22.25-1.83.375-.087.018-.176.032-.264.048Z" transform="translate(-17.074 -31.813)" fill="none" stroke="#fff" stroke-miterlimit="10" stroke-width="1"/>
          <path id="Path_142" data-name="Path 142" d="M87.4,77.081a13.537,13.537,0,0,1-2.224.66,28.134,28.134,0,0,1-3.076.513c-.766.085-1.534.162-2.3.221-.656.05-1.314.072-1.972.1-1.389.064-2.777.008-4.166-.034-.614-.018-1.228-.087-1.842-.136-.444-.036-.889-.072-1.332-.119-.492-.052-.984-.115-1.475-.178s-.968-.126-1.451-.2c-.637-.1-1.273-.195-1.907-.3-.837-.142-1.672-.292-2.508-.444-.863-.157-1.725-.32-2.587-.479q-1.2-.222-2.4-.443c-.815-.148-1.629-.3-2.445-.438-.724-.125-1.451-.242-2.178-.358-.594-.094-1.188-.185-1.783-.267-.463-.063-.927-.112-1.392-.163q-.865-.095-1.731-.182c-.24-.024-.48-.045-.72-.058-.488-.027-.976-.057-1.464-.072-1.012-.032-2.025-.07-3.038-.077-.793-.005-1.586.032-2.379.052a4.006,4.006,0,0,1-.62,0c.174-.045.347-.1.523-.135a28.643,28.643,0,0,1,3.24-.559c.816-.087,1.633-.165,2.451-.217.678-.044,1.358-.045,2.038-.064.3-.008.595-.022.892-.014.878.021,1.756.045,2.634.082.637.026,1.273.061,1.908.115.747.064,1.492.149,2.237.231.577.064,1.153.131,1.727.207.75.1,1.5.209,2.248.316.9.13,1.792.258,2.687.394.734.112,1.466.237,2.2.353q.975.153,1.951.3c.587.09,1.174.182,1.763.266.525.075,1.051.142,1.577.208.618.078,1.236.155,1.854.225.408.046.817.078,1.226.118l1.352.132c.219.021.437.041.656.056.36.025.721.046,1.081.071l2.034.142.085.005c.545.025,1.089.058,1.634.073,1.459.039,2.918.077,4.378.1.73.012,1.46-.005,2.189-.008.141,0,.283,0,.424.006" transform="translate(-19.135 -34.888)" fill="#fff"/>
          <path id="Path_143" data-name="Path 143" d="M87.4,77.081a13.537,13.537,0,0,1-2.224.66,28.134,28.134,0,0,1-3.076.513c-.766.085-1.534.162-2.3.221-.656.05-1.314.072-1.972.1-1.389.064-2.777.008-4.166-.034-.614-.018-1.228-.087-1.842-.136-.444-.036-.889-.072-1.332-.119-.492-.052-.984-.115-1.475-.178s-.968-.126-1.451-.2c-.637-.1-1.273-.195-1.907-.3-.837-.142-1.672-.292-2.508-.444-.863-.157-1.725-.32-2.587-.479q-1.2-.222-2.4-.443c-.815-.148-1.629-.3-2.445-.438-.724-.125-1.451-.242-2.178-.358-.594-.094-1.188-.185-1.783-.267-.463-.063-.927-.112-1.392-.163q-.865-.095-1.731-.182c-.24-.024-.48-.045-.72-.058-.488-.027-.976-.057-1.464-.072-1.012-.032-2.025-.07-3.038-.077-.793-.005-1.586.032-2.379.052a4.006,4.006,0,0,1-.62,0c.174-.045.347-.1.523-.135a28.643,28.643,0,0,1,3.24-.559c.816-.087,1.633-.165,2.451-.217.678-.044,1.358-.045,2.038-.064.3-.008.595-.022.892-.014.878.021,1.756.045,2.634.082.637.026,1.273.061,1.908.115.747.064,1.492.149,2.237.231.577.064,1.153.131,1.727.207.75.1,1.5.209,2.248.316.9.13,1.792.258,2.687.394.734.112,1.466.237,2.2.353q.975.153,1.951.3c.587.09,1.174.182,1.763.266.525.075,1.051.142,1.577.208.618.078,1.236.155,1.854.225.408.046.817.078,1.226.118l1.352.132c.219.021.437.041.656.056.36.025.721.046,1.081.071l2.034.142.085.005c.545.025,1.089.058,1.634.073,1.459.039,2.918.077,4.378.1.73.012,1.46-.005,2.189-.008C87.121,77.075,87.263,77.079,87.4,77.081Z" transform="translate(-19.135 -34.888)" fill="none" stroke="#fff" stroke-miterlimit="10" stroke-width="1"/>
          <path id="Path_144" data-name="Path 144" d="M104.639,45.478l-.763.305L93.661,49.838a1.648,1.648,0,0,1-.263.026,2.057,2.057,0,0,1,.29-.142c.474-.184.874-.39,1.348-.569,1.269-.484,2.543-.974,3.812-1.458,1.353-.516,2.712-1.037,4.065-1.553.311-.121.627-.242.937-.358a.019.019,0,0,1,.016-.005c.258-.105.516-.2.774-.3" transform="translate(-44.223 -21.533)" fill="#fff"/>
          <path id="Path_145" data-name="Path 145" d="M104.639,45.478l-.763.305L93.661,49.838a1.648,1.648,0,0,1-.263.026,2.057,2.057,0,0,1,.29-.142c.474-.184.874-.39,1.348-.569,1.269-.484,2.543-.974,3.812-1.458,1.353-.516,2.712-1.037,4.065-1.553.311-.121.627-.242.937-.358a.019.019,0,0,1,.016-.005C104.123,45.673,104.381,45.578,104.639,45.478Z" transform="translate(-44.223 -21.533)" fill="none" stroke="#fff" stroke-miterlimit="10" stroke-width="1"/>
          <path id="Path_146" data-name="Path 146" d="M73.216,57.248h.047c-.042.079-.074.153-.105.226Z" transform="translate(-34.639 -27.106)" fill="#fff"/>
          <path id="Path_147" data-name="Path 147" d="M73.216,57.248h.047c-.042.079-.074.153-.105.226Z" transform="translate(-34.639 -27.106)" fill="none" stroke="#fff" stroke-miterlimit="10" stroke-width="1"/>
          <path id="Path_148" data-name="Path 148" d="M111.7,45.228l-.342.132-.763.305a.016.016,0,0,0-.011-.005.019.019,0,0,0-.016.005c-.958-.021-1.9-.016-2.817.021-.058,0-.116,0-.168.005.084-.016.168-.026.253-.037,1.237-.184,2.527-.332,3.849-.426Z" transform="translate(-50.937 -21.415)" fill="#fff"/>
          <path id="Path_149" data-name="Path 149" d="M111.7,45.228l-.342.132-.763.305a.016.016,0,0,0-.011-.005.019.019,0,0,0-.016.005c-.958-.021-1.9-.016-2.817.021-.058,0-.116,0-.168.005.084-.016.168-.026.253-.037,1.237-.184,2.527-.332,3.849-.426Z" transform="translate(-50.937 -21.415)" fill="none" stroke="#fff" stroke-miterlimit="10" stroke-width="1"/>
          <path id="Path_150" data-name="Path 150" d="M112.132,38.176l-8.208,3.259-.326.132-.763.305L92.619,45.927l-1.042.416L91.2,45.39l8.793-3.5.084-.032,11.678-4.644Z" transform="translate(-43.181 -17.622)" fill="#fff"/>
          <path id="Path_151" data-name="Path 151" d="M112.132,38.176l-8.208,3.259-.326.132-.763.305L92.619,45.927l-1.042.416L91.2,45.39l8.793-3.5.084-.032,11.678-4.644Z" transform="translate(-43.181 -17.622)" fill="none" stroke="#fff" stroke-miterlimit="10" stroke-width="1"/>
        </g>
      </g>
    </g>
  </g>
</svg>
