<svg xmlns="http://www.w3.org/2000/svg" xmlns:xlink="http://www.w3.org/1999/xlink" width="104" height="120" viewBox="0 0 104 120">
  <defs>
    <clipPath id="clip-path">
      <rect id="Rectangle_595" data-name="Rectangle 595" width="104" height="120" transform="translate(112 144)" fill="#2e2b2b" stroke="#707070" stroke-width="1"/>
    </clipPath>
    <clipPath id="clip-path-2">
      <rect id="Rectangle_588" data-name="Rectangle 588" width="103.954" height="100.968" fill="none"/>
    </clipPath>
  </defs>
  <g id="Mask_Group_3" data-name="Mask Group 3" transform="translate(-112 -144)" clip-path="url(#clip-path)">
    <g id="Group_158" data-name="Group 158" transform="translate(0 -5.016)">
      <path id="Path_227" data-name="Path 227" d="M36.458,101.083V114.7h-1.94V101.083H30.269v-1.6H40.706v1.6Z" transform="translate(99.479 117.711)" fill="#fff"/>
      <path id="Path_228" data-name="Path 228" d="M36.627,114.869h-3.11V101.252H29.268V98.485H40.875v2.767H36.627Zm-1.94-1.17h.771V100.082h4.249v-.428H30.438v.428h4.249Z" transform="translate(99.895 118.127)" fill="#fff"/>
      <g id="Group_157" data-name="Group 157" transform="translate(112.046 159.016)">
        <g id="Group_33" data-name="Group 33" clip-path="url(#clip-path-2)">
          <path id="Path_173" data-name="Path 173" d="M55.7,106.926c0-4.539,4.065-7.869,9.1-7.869s9.1,3.33,9.1,7.869c0,4.516-4.039,7.869-9.1,7.869s-9.1-3.353-9.1-7.869m1.993,0c0,3.49,3.173,6.272,7.107,6.272s7.107-2.783,7.107-6.272-3.173-6.273-7.107-6.273-7.107,2.783-7.107,6.273" transform="translate(-23.125 -41.127)" fill="#fff"/>
          <path id="Path_174" data-name="Path 174" d="M64.383,114.966c-5.431,0-9.685-3.714-9.685-8.454s4.254-8.454,9.685-8.454,9.686,3.713,9.686,8.454-4.255,8.454-9.686,8.454m0-15.738c-4.855,0-8.516,3.131-8.516,7.285s3.661,7.284,8.516,7.284,8.516-3.132,8.516-7.284-3.662-7.285-8.516-7.285m0,14.141c-4.241,0-7.692-3.076-7.692-6.856s3.451-6.858,7.692-6.858,7.692,3.076,7.692,6.858-3.45,6.856-7.692,6.856m0-12.544c-3.6,0-6.522,2.552-6.522,5.688s2.926,5.687,6.522,5.687,6.522-2.551,6.522-5.687-2.926-5.688-6.522-5.688" transform="translate(-22.71 -40.712)" fill="#fff"/>
          <path id="Path_175" data-name="Path 175" d="M99.2,99.486h3.567a10.526,10.526,0,0,1,6.452,1.78,7.063,7.063,0,0,1,2.99,5.839,6.955,6.955,0,0,1-3.069,5.839c-1.6,1.185-3.279,1.756-6.4,1.756H99.2Zm1.941,13.617h1.7a8.27,8.27,0,0,0,5.009-1.368,5.54,5.54,0,0,0,2.361-4.63c0-3.649-2.938-6.022-7.37-6.022h-1.7Z" transform="translate(-41.186 -41.305)" fill="#fff"/>
          <path id="Path_176" data-name="Path 176" d="M102.326,114.869H98.2V98.486h4.152a11.057,11.057,0,0,1,6.8,1.893,7.657,7.657,0,0,1,3.229,6.31,7.476,7.476,0,0,1-3.3,6.308c-1.818,1.347-3.71,1.871-6.748,1.871m-2.956-1.17h2.956c3.194,0,4.684-.628,6.052-1.641a6.342,6.342,0,0,0,2.832-5.369,6.515,6.515,0,0,0-2.749-5.366,9.984,9.984,0,0,0-6.108-1.667H99.371Zm3.06-.427h-2.289v-13.19h2.289c4.758,0,7.955,2.655,7.955,6.607a6.111,6.111,0,0,1-2.6,5.1,8.8,8.8,0,0,1-5.355,1.481m-1.119-1.17h1.119a7.719,7.719,0,0,0,4.667-1.257,4.979,4.979,0,0,0,2.118-4.156c0-3.3-2.663-5.437-6.785-5.437h-1.119Z" transform="translate(-40.771 -40.89)" fill="#fff"/>
          <path id="Path_177" data-name="Path 177" d="M140.97,102.319a3.788,3.788,0,0,0-1.023-1.14,3.462,3.462,0,0,0-1.967-.525c-1.731,0-2.938.935-2.938,2.349a1.51,1.51,0,0,0,.656,1.323,5.923,5.923,0,0,0,1.836.957l1.678.639a8.8,8.8,0,0,1,2.7,1.437,3.425,3.425,0,0,1,1.259,2.76c0,2.805-2.386,4.676-5.534,4.676a5.7,5.7,0,0,1-3.8-1.231,5.322,5.322,0,0,1-1.626-2.692l1.888-.456a3.423,3.423,0,0,0,1.049,1.939,3.638,3.638,0,0,0,2.518.844c2.387,0,3.514-1.483,3.514-3.011a2.137,2.137,0,0,0-.865-1.779,8,8,0,0,0-2.1-1.05l-1.573-.639a8.015,8.015,0,0,1-2.335-1.254,2.986,2.986,0,0,1-1.206-2.487c0-2.349,2.072-3.923,4.9-3.923a5.272,5.272,0,0,1,2.805.684,4.871,4.871,0,0,1,1.705,1.688Z" transform="translate(-54.891 -41.127)" fill="#fff"/>
          <path id="Path_178" data-name="Path 178" d="M137.132,114.965a6.176,6.176,0,0,1-4.181-1.37,5.9,5.9,0,0,1-1.814-2.991l-.149-.575,3.078-.744.1.622a2.839,2.839,0,0,0,.867,1.6,3.025,3.025,0,0,0,2.123.69c2.162,0,2.929-1.307,2.929-2.426a1.561,1.561,0,0,0-.645-1.321,7.7,7.7,0,0,0-1.95-.964l-1.715-.695a8.121,8.121,0,0,1-2.352-1.293,3.567,3.567,0,0,1-1.415-2.935c0-2.654,2.257-4.508,5.49-4.508a5.856,5.856,0,0,1,3.1.763,5.433,5.433,0,0,1,1.915,1.9l.3.51-2.569,1.477-.292-.507a3.206,3.206,0,0,0-.85-.952,2.9,2.9,0,0,0-1.633-.42c-1.429,0-2.353.692-2.353,1.764a.938.938,0,0,0,.442.871,5.46,5.46,0,0,0,1.674.864l1.677.638a9.221,9.221,0,0,1,2.877,1.542,4.028,4.028,0,0,1,1.46,3.2c0,3.048-2.573,5.26-6.118,5.26m-4.68-4.087a4.528,4.528,0,0,0,1.254,1.823,5.06,5.06,0,0,0,3.426,1.094c2.914,0,4.949-1.683,4.949-4.091a2.846,2.846,0,0,0-1.058-2.319,8.246,8.246,0,0,0-2.525-1.332l-1.679-.639a6.4,6.4,0,0,1-2.012-1.063,2.076,2.076,0,0,1-.857-1.764c0-1.728,1.449-2.933,3.522-2.933a4.052,4.052,0,0,1,2.292.623,4.2,4.2,0,0,1,.875.849l.524-.3a4.3,4.3,0,0,0-1.153-.994,4.7,4.7,0,0,0-2.512-.605c-2.544,0-4.32,1.373-4.32,3.338a2.4,2.4,0,0,0,1,2.039,7.008,7.008,0,0,0,2.033,1.1l1.719.7a8.366,8.366,0,0,1,2.25,1.14,2.7,2.7,0,0,1,1.078,2.23c0,1.732-1.283,3.6-4.1,3.6a4.17,4.17,0,0,1-2.9-.987,4.051,4.051,0,0,1-1.089-1.676Z" transform="translate(-54.384 -40.711)" fill="#fff"/>
          <path id="Path_179" data-name="Path 179" d="M18.721,155v2.432h-.809V155h-.664v-.687h2.137V155Z" transform="translate(-7.161 -64.069)" fill="#fff"/>
          <path id="Path_180" data-name="Path 180" d="M25.369,155.48h1.169v-1.164h.813v3.119h-.813v-1.263H25.369v1.263H24.56v-3.119h.809Z" transform="translate(-10.197 -64.069)" fill="#fff"/>
          <path id="Path_181" data-name="Path 181" d="M36.207,156.992a1.864,1.864,0,0,1-2.46,0,1.632,1.632,0,0,1,0-2.334,1.866,1.866,0,0,1,2.46,0,1.633,1.633,0,0,1,0,2.334m-1.861-1.763a.855.855,0,0,0-.248.613.791.791,0,0,0,.248.58.885.885,0,0,0,.632.248.848.848,0,0,0,.879-.842.841.841,0,0,0-.253-.6.937.937,0,0,0-.626-.248.9.9,0,0,0-.632.248" transform="translate(-13.807 -64.019)" fill="#fff"/>
          <path id="Path_182" data-name="Path 182" d="M42.72,157.435l.528-3.119h.8l.631,1.664.669-1.664h.809l.467,3.119h-.809l-.229-1.8-.753,1.8h-.322l-.72-1.8-.267,1.8Z" transform="translate(-17.736 -64.069)" fill="#fff"/>
          <path id="Path_183" data-name="Path 183" d="M54.129,156.4v1.034H53.32v-3.119h1.291a1.076,1.076,0,0,1,.79.28.966.966,0,0,1,.289.757,1.012,1.012,0,0,1-.275.776,1.039,1.039,0,0,1-.776.271Zm0-.654H54.4a.53.53,0,0,0,.341-.1.357.357,0,0,0,.1-.285.378.378,0,0,0-.094-.281.474.474,0,0,0-.346-.112h-.276Z" transform="translate(-22.137 -64.069)" fill="#fff"/>
          <path id="Path_184" data-name="Path 184" d="M61.257,156.449a1.093,1.093,0,0,0,.716.318.41.41,0,0,0,.313-.108.279.279,0,0,0,.08-.2.246.246,0,0,0-.089-.187,1.114,1.114,0,0,0-.4-.163l-.211-.065a1.032,1.032,0,0,1-.449-.253.785.785,0,0,1-.178-.552,1.021,1.021,0,0,1,.285-.753,1.1,1.1,0,0,1,.8-.294,2.19,2.19,0,0,1,.963.253l-.323.631a.819.819,0,0,0-.533-.21.386.386,0,0,0-.267.094.23.23,0,0,0-.08.168.206.206,0,0,0,.043.14.512.512,0,0,0,.271.141l.247.074a1.19,1.19,0,0,1,.566.309.733.733,0,0,1,.2.556,1.057,1.057,0,0,1-.295.786,1.21,1.21,0,0,1-.921.318,1.665,1.665,0,0,1-.612-.1,2.15,2.15,0,0,1-.473-.248Z" transform="translate(-25.289 -64.019)" fill="#fff"/>
          <path id="Path_185" data-name="Path 185" d="M71.47,156.992a1.864,1.864,0,0,1-2.46,0,1.633,1.633,0,0,1,0-2.334,1.866,1.866,0,0,1,2.46,0,1.633,1.633,0,0,1,0,2.334m-1.861-1.763a.855.855,0,0,0-.248.613.791.791,0,0,0,.248.58.885.885,0,0,0,.631.248.848.848,0,0,0,.88-.842.843.843,0,0,0-.253-.6.937.937,0,0,0-.627-.248.9.9,0,0,0-.631.248" transform="translate(-28.448 -64.019)" fill="#fff"/>
          <path id="Path_186" data-name="Path 186" d="M78.327,157.435v-3.119h.809l1.491,1.908v-1.908h.809v3.119h-.809l-1.491-1.908v1.908Z" transform="translate(-32.52 -64.069)" fill="#fff"/>
          <path id="Path_187" data-name="Path 187" d="M95.424,156.992a1.864,1.864,0,0,1-2.46,0,1.633,1.633,0,0,1,0-2.334,1.866,1.866,0,0,1,2.46,0,1.633,1.633,0,0,1,0,2.334m-1.861-1.763a.855.855,0,0,0-.248.613.791.791,0,0,0,.248.58.885.885,0,0,0,.631.248.848.848,0,0,0,.88-.842.843.843,0,0,0-.253-.6.937.937,0,0,0-.627-.248.9.9,0,0,0-.631.248" transform="translate(-38.393 -64.019)" fill="#fff"/>
          <path id="Path_188" data-name="Path 188" d="M103.09,155.6l.991-1.285h1l-1.239,1.477,1.352,1.642h-1.047l-1.057-1.352v1.352h-.809v-3.119h.809Z" transform="translate(-42.465 -64.069)" fill="#fff"/>
          <path id="Path_189" data-name="Path 189" d="M112.615,156.911h-1.131l-.211.523h-.856l1.2-3.119h.884l1.174,3.119h-.866Zm-.215-.618-.351-1.011-.342,1.011Z" transform="translate(-45.843 -64.069)" fill="#fff"/>
          <path id="Path_190" data-name="Path 190" d="M119.641,157.435v-3.119h.809l1.491,1.908v-1.908h.809v3.119h-.809l-1.491-1.908v1.908Z" transform="translate(-49.673 -64.069)" fill="#fff"/>
          <path id="Path_191" data-name="Path 191" d="M130.813,156.911h-1.131l-.211.523h-.856l1.2-3.119h.884l1.174,3.119H131Zm-.215-.618-.351-1.011-.342,1.011Z" transform="translate(-53.399 -64.069)" fill="#fff"/>
          <path id="Path_192" data-name="Path 192" d="M139.075,155.617h1.609a1.744,1.744,0,0,1-.5,1.4,1.525,1.525,0,0,1-1.1.393,1.609,1.609,0,0,1-1.2-.463,1.57,1.57,0,0,1-.449-1.126,1.625,1.625,0,0,1,.468-1.169,1.813,1.813,0,0,1,2.053-.248,1.53,1.53,0,0,1,.556.64l-.771.318a.767.767,0,0,0-.225-.313.655.655,0,0,0-.435-.154.755.755,0,0,0-.533.215,1.051,1.051,0,0,0-.271.715.975.975,0,0,0,.247.674.739.739,0,0,0,.571.239.668.668,0,0,0,.449-.145.557.557,0,0,0,.192-.346h-.664Z" transform="translate(-57.062 -64.019)" fill="#fff"/>
          <path id="Path_193" data-name="Path 193" d="M148.3,156.911h-1.131l-.211.523H146.1l1.2-3.119h.884l1.174,3.119h-.866Zm-.215-.618-.351-1.011-.342,1.011Z" transform="translate(-60.659 -64.069)" fill="#fff"/>
          <path id="Path_194" data-name="Path 194" d="M155.326,157.435v-3.119h.809l1.491,1.908v-1.908h.809v3.119h-.809l-1.491-1.908v1.908Z" transform="translate(-64.489 -64.069)" fill="#fff"/>
          <path id="Path_195" data-name="Path 195" d="M38.872,170.314V167.2h1.061a1.74,1.74,0,0,1,1.239.43,1.524,1.524,0,0,1,.435,1.136,1.437,1.437,0,0,1-.406,1.08,1.694,1.694,0,0,1-1.2.473Zm.809-.687h.164a.93.93,0,0,0,.682-.225.85.85,0,0,0,.239-.64.93.93,0,0,0-.243-.682.9.9,0,0,0-.645-.2h-.2Z" transform="translate(-16.139 -69.416)" fill="#fff"/>
          <path id="Path_196" data-name="Path 196" d="M49.244,167.882h-.963v.519h.912v.688h-.912v.537h.963v.687H47.472v-3.119h1.772Z" transform="translate(-19.709 -69.416)" fill="#fff"/>
          <path id="Path_197" data-name="Path 197" d="M54.424,170.314v-3.119h.809l1.492,1.908v-1.908h.809v3.119h-.809l-1.492-1.908v1.908Z" transform="translate(-22.596 -69.416)" fill="#fff"/>
          <path id="Path_198" data-name="Path 198" d="M64.873,167.882v2.431h-.809v-2.431H63.4v-.688h2.138v.688Z" transform="translate(-26.322 -69.416)" fill="#fff"/>
          <path id="Path_199" data-name="Path 199" d="M72.166,169.79H71.035l-.211.523h-.856l1.2-3.119h.884l1.174,3.119h-.866Zm-.215-.617-.351-1.011-.342,1.011Z" transform="translate(-29.049 -69.416)" fill="#fff"/>
          <path id="Path_200" data-name="Path 200" d="M80,167.195v2.432h.973v.687H79.192v-3.119Z" transform="translate(-32.879 -69.416)" fill="#fff"/>
          <path id="Path_201" data-name="Path 201" d="M91,169.329a1.1,1.1,0,0,0,.716.318.411.411,0,0,0,.313-.108.281.281,0,0,0,.08-.2.244.244,0,0,0-.089-.187,1.125,1.125,0,0,0-.4-.164l-.211-.065a1.029,1.029,0,0,1-.449-.253.783.783,0,0,1-.178-.552,1.024,1.024,0,0,1,.285-.753,1.1,1.1,0,0,1,.8-.294,2.184,2.184,0,0,1,.964.253l-.323.631a.822.822,0,0,0-.533-.211.387.387,0,0,0-.266.094.232.232,0,0,0-.08.168.207.207,0,0,0,.043.14.5.5,0,0,0,.271.141l.248.075a1.187,1.187,0,0,1,.566.309.735.735,0,0,1,.2.556,1.057,1.057,0,0,1-.295.785,1.209,1.209,0,0,1-.921.318,1.668,1.668,0,0,1-.613-.1,2.166,2.166,0,0,1-.472-.248Z" transform="translate(-37.639 -69.366)" fill="#fff"/>
          <path id="Path_202" data-name="Path 202" d="M101.216,169.871a1.866,1.866,0,0,1-2.46,0,1.632,1.632,0,0,1,0-2.334,1.864,1.864,0,0,1,2.46,0,1.635,1.635,0,0,1,0,2.334m-1.861-1.763a.853.853,0,0,0-.248.612.8.8,0,0,0,.248.58.887.887,0,0,0,.632.247.847.847,0,0,0,.879-.842.842.842,0,0,0-.253-.6.934.934,0,0,0-.626-.248.9.9,0,0,0-.632.248" transform="translate(-40.798 -69.366)" fill="#fff"/>
          <path id="Path_203" data-name="Path 203" d="M110.213,170.193a1.937,1.937,0,0,1-.7.154,1.7,1.7,0,0,1-1.207-.468,1.638,1.638,0,0,1-.472-1.136,1.67,1.67,0,0,1,.472-1.15,1.653,1.653,0,0,1,1.179-.487,1.94,1.94,0,0,1,.729.158v.968a.869.869,0,0,0-.706-.341.79.79,0,0,0-.561.206.872.872,0,0,0-.271.641.861.861,0,0,0,.253.608.87.87,0,0,0,.58.215.916.916,0,0,0,.706-.327Z" transform="translate(-44.77 -69.38)" fill="#fff"/>
          <rect id="Rectangle_586" data-name="Rectangle 586" width="0.809" height="3.119" transform="translate(67.737 97.779)" fill="#fff"/>
          <path id="Path_204" data-name="Path 204" d="M123.141,167.882h-.963v.519h.911v.688h-.911v.537h.963v.687h-1.772v-3.119h1.772Z" transform="translate(-50.39 -69.416)" fill="#fff"/>
          <path id="Path_205" data-name="Path 205" d="M129.49,167.882v2.431h-.809v-2.431h-.664v-.688h2.138v.688Z" transform="translate(-53.15 -69.416)" fill="#fff"/>
          <path id="Path_206" data-name="Path 206" d="M136,168.818l-1.127-1.622h.968l.588.851L137,167.2h.982l-1.164,1.622v1.5H136Z" transform="translate(-55.997 -69.416)" fill="#fff"/>
          <rect id="Rectangle_587" data-name="Rectangle 587" width="103.954" height="0.404" transform="translate(0 82.052)" fill="#fff"/>
          <path id="Path_207" data-name="Path 207" d="M67.672.185q-2.459,2.662-4.919,5.324-2.139,2.3-4.3,4.581a25.683,25.683,0,0,0-1.85,2.049,11.225,11.225,0,0,1-1.072,1.255,4.028,4.028,0,0,1-2.37,1.109c-.787.106-1.57.233-2.353.358-.9.144-1.8.3-2.7.447-.643.108-1.288.21-1.928.335a4.954,4.954,0,0,0-3.059,1.887q-3.819,4.88-7.686,9.722c-2.016,2.529-4.057,5.038-6.087,7.555-.131.162-.259.327-.388.491a.532.532,0,0,0,.24-.039c.443-.161.884-.329,1.33-.484a43.916,43.916,0,0,1,4.925-1.383c1.212-.268,2.429-.511,3.657-.7.7-.108,1.4-.218,2.1-.312.576-.077,1.154-.139,1.733-.2.461-.045.924-.076,1.387-.1.745-.047,1.491-.114,2.236-.123,1.07-.014,2.14.009,3.21.032.6.013,1.209.057,1.814.091q1.236.072,2.471.152c.236.015.471.036.705.056l1.48.126c.446.037.893.072,1.339.111.47.041.939.085,1.408.128.384.035.767.067,1.151.1q.879.086,1.759.178c.492.051.985.1,1.477.157s.983.115,1.475.171.968.1,1.453.16.951.115,1.428.169c.492.056.985.1,1.477.159.757.087,1.513.18,2.27.266.624.071,1.25.135,1.874.2.8.089,1.608.185,2.412.267q1.243.128,2.488.235c.814.07,1.629.135,2.445.19s1.648.1,2.473.142c.88.04,1.761.084,2.641.093,1.732.018,3.463.032,5.194-.044.306-.013.613-.025.919-.051.806-.07,1.612-.143,2.418-.225q.867-.089,1.732-.206c.833-.114,1.664-.24,2.5-.364q.782-.116,1.56-.242a.594.594,0,0,0,.146-.074c-.055-.075-.093-.135-.138-.188q-.782-.931-1.565-1.86-1.451-1.725-2.9-3.45-1.331-1.581-2.664-3.158c-.9-1.064-1.792-2.132-2.7-3.191-.357-.419-.73-.825-1.106-1.228a1.672,1.672,0,0,0-1.644-.479,13.9,13.9,0,0,0-2.087.584c-.171.061-.182.06-.3-.08s-.23-.28-.346-.419q-1.578-1.9-3.156-3.792-1.69-2.033-3.38-4.067-1.569-1.888-3.14-3.774Q73.469,6.8,71.78,4.768L68.61.957,67.821.011" transform="translate(-12.026 -0.005)" fill="#fff"/>
          <path id="Path_208" data-name="Path 208" d="M28.23,62.914l.024.043c.094-.033.189-.06.28-.1a20.224,20.224,0,0,1,3.15-1.058,35.344,35.344,0,0,1,4.9-.853c.969-.1,1.939-.2,2.911-.266.808-.057,1.618-.095,2.428-.1,1.629,0,3.258.016,4.887.035.559.006,1.116.032,1.674.055.306.013.613.034.918.057q.8.061,1.6.127c.4.034.8.068,1.2.11.5.053,1,.111,1.5.171q.866.1,1.731.216c.537.068,1.075.14,1.612.211L59,61.824l1.612.213c.537.071,1.075.142,1.612.215q1.086.149,2.171.3c.74.1,1.478.209,2.218.309q.818.111,1.636.212c.452.056.905.106,1.358.16.476.056.952.115,1.428.167.508.056,1.016.1,1.524.157.539.057,1.078.119,1.617.173.563.056,1.128.1,1.691.156.782.073,1.564.157,2.347.218s1.568.111,2.354.142c.841.033,1.683.044,2.525.054.677.008,1.354.014,2.031-.008.778-.026,1.554-.081,2.331-.129.495-.03.99-.055,1.482-.108.882-.095,1.765-.2,2.644-.32.825-.116,1.648-.247,2.466-.4a38.355,38.355,0,0,0,4.592-1.161,25.96,25.96,0,0,0,3.653-1.471c.135-.067.262-.152.392-.228-.594.09-1.166.226-1.745.336q-1.795.339-3.594.656c-1.418.25-2.849.39-4.283.5-.808.062-1.616.1-2.425.145-.651.035-1.3.075-1.956.088-.8.016-1.6.04-2.4.02-.826-.022-1.652-.03-2.478-.051-.55-.013-1.1-.036-1.651-.059-.243-.01-.487-.027-.73-.043q-.388-.025-.776-.054l-1.669-.13c-.423-.034-.846-.068-1.269-.108-.563-.054-1.126-.113-1.688-.171-.5-.052-1-.1-1.5-.158q-.948-.107-1.9-.224-.842-.1-1.684-.212c-.654-.084-1.309-.172-1.963-.257-.569-.074-1.138-.145-1.707-.219-.522-.068-1.043-.139-1.566-.208s-1.06-.137-1.59-.2l-1.73-.22c-.577-.073-1.154-.147-1.731-.218-.46-.056-.921-.108-1.381-.161l-1.405-.159c-.508-.057-1.015-.115-1.523-.168-.539-.056-1.079-.106-1.619-.159-.579-.057-1.157-.118-1.736-.17q-.705-.064-1.411-.109c-.73-.046-1.459-.1-2.19-.123-.756-.022-1.512-.01-2.267-.011-.409,0-.819-.007-1.228.011-.8.036-1.6.084-2.4.131-.51.03-1.021.056-1.529.107-.8.079-1.593.176-2.39.267-1.086.125-2.162.31-3.233.528a28.615,28.615,0,0,0-4.649,1.314,12.683,12.683,0,0,0-3.074,1.635c-.13.1-.257.2-.385.3" transform="translate(-11.721 -24.338)" fill="#fff"/>
          <path id="Path_209" data-name="Path 209" d="M34.813,69.221c0,.014.01.027.015.042.1-.019.2-.036.292-.056.676-.146,1.349-.307,2.028-.436a34.905,34.905,0,0,1,4.731-.513c.581-.03,1.164-.041,1.746-.041.771,0,1.542.017,2.313.034.5.011,1.006.033,1.509.054.3.012.6.03.895.052q.824.06,1.646.127c.4.033.8.072,1.2.112.555.055,1.109.114,1.664.17.383.039.767.072,1.15.112q.8.082,1.594.172c.468.051.937.1,1.405.161.561.069,1.122.144,1.683.215.678.085,1.357.167,2.035.254s1.371.179,2.056.268l1.614.209q.853.109,1.707.215c.451.056.9.109,1.357.162.476.057.951.114,1.429.168s.984.108,1.476.16c.547.058,1.094.116,1.642.17.415.04.83.073,1.245.111.6.056,1.2.118,1.807.171.477.042.956.071,1.435.109.729.057,1.456.123,2.185.173.612.042,1.225.071,1.837.094.661.025,1.321.046,1.982.047.74,0,1.48-.012,2.219-.032.817-.023,1.636-.05,2.451-.1s1.648-.1,2.467-.193c.921-.1,1.84-.228,2.755-.372a25.282,25.282,0,0,0,5.18-1.4c.053-.02.1-.049.2-.1a1.585,1.585,0,0,0-.63.046c-.692.1-1.383.212-2.076.3-.57.07-1.142.116-1.714.154-.808.054-1.617.122-2.426.126-1.416.008-2.832-.024-4.248-.046-.384-.006-.77-.029-1.154-.053-.619-.039-1.239-.083-1.859-.127-.486-.035-.973-.067-1.457-.107-.462-.038-.924-.084-1.386-.125-.61-.054-1.222-.1-1.832-.159-.664-.066-1.328-.143-1.992-.219q-1.065-.122-2.13-.252c-.694-.085-1.387-.18-2.081-.267s-1.388-.167-2.082-.254c-.811-.1-1.621-.211-2.432-.312-.842-.1-1.685-.2-2.528-.3-.811-.1-1.621-.211-2.432-.308q-1.263-.15-2.531-.282c-.968-.1-1.938-.2-2.909-.284-.837-.074-1.677-.132-2.516-.191-.737-.051-1.474-.1-2.211-.14-.778-.04-1.557-.087-2.335-.092q-1.783-.011-3.564.033c-.872.023-1.743.08-2.614.146-.83.064-1.66.142-2.486.249a25.443,25.443,0,0,0-3.649.729,19.271,19.271,0,0,0-3.015,1.086c-.224.105-.441.226-.661.34" transform="translate(-14.454 -27.666)" fill="#fff"/>
          <path id="Path_210" data-name="Path 210" d="M92.859,76.814c-.157,0-.314,0-.471,0-.811.015-1.621.047-2.431.045-1.622,0-3.243-.023-4.864-.043-.606-.008-1.211-.035-1.816-.054l-.095,0-2.26-.125c-.4-.022-.8-.039-1.2-.061-.243-.014-.487-.032-.729-.052l-1.5-.124c-.454-.037-.91-.066-1.364-.111-.688-.067-1.375-.143-2.063-.219-.585-.065-1.171-.131-1.756-.206-.655-.084-1.308-.177-1.962-.267-.724-.1-1.448-.2-2.171-.3-.817-.117-1.632-.243-2.449-.356-1-.137-1.994-.266-2.991-.394-.833-.108-1.667-.216-2.5-.315-.64-.075-1.281-.142-1.922-.2-.829-.08-1.659-.162-2.489-.22-.706-.05-1.414-.078-2.121-.1-.975-.026-1.95-.038-2.926-.047-.33,0-.66.017-.99.03-.754.032-1.51.044-2.262.1-.908.071-1.815.172-2.719.281a31.865,31.865,0,0,0-3.589.674c-.194.047-.386.106-.578.159a4.506,4.506,0,0,0,.689,0c.88-.036,1.76-.09,2.641-.1,1.125-.009,2.25.017,3.375.036.543.009,1.085.034,1.628.057.267.011.534.03.8.053q.963.082,1.925.173c.516.049,1.033.1,1.548.158.663.081,1.324.173,1.985.268.809.116,1.618.234,2.425.361.908.143,1.815.295,2.722.446q1.337.223,2.673.452c.961.163,1.921.33,2.882.49.93.154,1.86.308,2.792.452.706.11,1.415.21,2.123.306.537.073,1.075.136,1.615.2s1.092.123,1.64.174c.493.045.987.078,1.481.11.682.045,1.365.111,2.048.122,1.542.025,3.086.063,4.627-.031.729-.044,1.46-.08,2.188-.146.853-.078,1.7-.176,2.553-.283a31.04,31.04,0,0,0,3.408-.62,15.041,15.041,0,0,0,2.459-.77" transform="translate(-16.87 -30.583)" fill="#fff"/>
          <path id="Path_211" data-name="Path 211" d="M67.79,0l.79.946,3.17,3.812q1.69,2.033,3.38,4.067,1.569,1.888,3.14,3.774,1.69,2.033,3.379,4.067,1.577,1.9,3.157,3.792c.116.139.229.281.346.419s.131.142.3.08a13.883,13.883,0,0,1,2.087-.584,1.67,1.67,0,0,1,1.643.479c.375.4.749.808,1.106,1.228.9,1.059,1.8,2.127,2.7,3.191s1.777,2.1,2.665,3.158q1.452,1.724,2.9,3.45.782.931,1.565,1.86c.044.053.082.113.137.188a.581.581,0,0,1-.146.074q-.78.125-1.56.242c-.832.124-1.663.25-2.5.364q-.863.118-1.732.206c-.805.082-1.611.155-2.418.225-.305.027-.612.038-.918.051-1.731.075-3.463.062-5.194.044-.881-.009-1.761-.053-2.641-.093q-1.237-.057-2.473-.142c-.816-.055-1.63-.12-2.445-.19s-1.659-.15-2.487-.235c-.8-.082-1.608-.178-2.413-.267-.625-.068-1.25-.132-1.874-.2-.757-.086-1.514-.179-2.27-.266-.492-.056-.984-.1-1.476-.159-.477-.054-.951-.115-1.428-.169s-.968-.106-1.452-.16-.983-.116-1.475-.171-.985-.106-1.477-.157q-.879-.09-1.759-.178c-.383-.037-.767-.07-1.15-.1-.47-.043-.939-.087-1.409-.128-.446-.039-.893-.073-1.339-.111l-1.48-.126c-.235-.02-.47-.041-.705-.056q-1.236-.078-2.472-.152c-.6-.035-1.208-.078-1.814-.091-1.07-.023-2.14-.046-3.209-.032-.746.009-1.492.077-2.237.123-.463.029-.926.06-1.387.1-.578.056-1.157.118-1.733.2-.7.094-1.4.2-2.1.312-1.228.189-2.445.432-3.657.7A43.907,43.907,0,0,0,30.5,34.763c-.446.155-.887.323-1.33.484a.531.531,0,0,1-.24.039c.13-.164.257-.329.388-.491,2.03-2.518,4.071-5.027,6.087-7.555q3.862-4.846,7.686-9.722a4.952,4.952,0,0,1,3.058-1.887c.64-.125,1.284-.227,1.928-.335.9-.151,1.8-.3,2.7-.447.783-.125,1.567-.252,2.353-.358a4.027,4.027,0,0,0,2.37-1.109,11.225,11.225,0,0,0,1.072-1.255,25.577,25.577,0,0,1,1.851-2.049q2.152-2.288,4.3-4.581Q65.19,2.843,67.641.174" transform="translate(-12.013)" fill="#0070bc"/>
          <path id="Path_212" data-name="Path 212" d="M28.119,63.342c.128-.1.255-.2.385-.3a12.683,12.683,0,0,1,3.074-1.635,28.615,28.615,0,0,1,4.649-1.313c1.071-.218,2.147-.4,3.233-.528.8-.091,1.592-.188,2.39-.267.508-.05,1.019-.077,1.529-.107.8-.047,1.6-.1,2.4-.131.409-.018.819-.011,1.228-.011.756,0,1.512-.012,2.267.011.73.022,1.46.077,2.19.123q.706.046,1.411.109c.579.052,1.157.113,1.736.17.54.053,1.08.1,1.619.159.508.053,1.015.111,1.523.168l1.405.159c.461.053.922.1,1.381.161.577.07,1.154.144,1.731.218l1.73.22,1.59.2c.522.068,1.044.14,1.566.208.569.074,1.138.146,1.707.219.654.085,1.309.173,1.963.257q.841.109,1.684.212.947.116,1.9.224c.5.057,1,.106,1.5.158.563.058,1.125.118,1.688.171.423.04.846.074,1.269.108l1.669.13q.388.029.776.054c.243.016.487.033.73.043.55.023,1.1.046,1.651.059.826.02,1.653.029,2.478.051.8.02,1.6,0,2.4-.02.653-.013,1.3-.053,1.956-.088.809-.044,1.618-.083,2.425-.145,1.434-.111,2.866-.25,4.283-.5q1.8-.318,3.594-.656c.578-.11,1.151-.246,1.745-.336-.13.076-.257.161-.392.228A25.96,25.96,0,0,1,98.531,62.6a38.354,38.354,0,0,1-4.592,1.161c-.818.155-1.642.287-2.466.4-.879.124-1.761.225-2.644.32-.492.053-.987.078-1.482.108-.777.047-1.553.1-2.331.129-.677.022-1.354.016-2.031.008-.842-.009-1.684-.021-2.525-.054-.786-.031-1.571-.081-2.354-.142s-1.565-.145-2.347-.218c-.563-.053-1.128-.1-1.691-.156-.539-.054-1.078-.116-1.617-.173-.508-.054-1.016-.1-1.524-.157-.477-.052-.952-.112-1.428-.167-.453-.053-.906-.1-1.358-.16q-.818-.1-1.636-.212c-.74-.1-1.478-.206-2.218-.309q-1.085-.152-2.171-.3c-.537-.074-1.075-.144-1.612-.215l-1.612-.213-1.963-.258c-.537-.071-1.075-.143-1.612-.211q-.865-.111-1.731-.216c-.5-.06-1-.118-1.5-.171-.4-.042-.8-.076-1.2-.11q-.8-.067-1.6-.127c-.305-.023-.612-.044-.918-.057-.558-.023-1.116-.049-1.674-.055-1.629-.018-3.259-.039-4.887-.035-.81,0-1.621.04-2.428.1-.972.068-1.942.167-2.911.266a35.343,35.343,0,0,0-4.9.853,20.224,20.224,0,0,0-3.15,1.058c-.091.039-.186.067-.28.1l-.024-.043" transform="translate(-11.674 -24.516)" fill="#9db31b"/>
          <path id="Path_213" data-name="Path 213" d="M33.983,68.895c.221-.112.439-.23.664-.333A19.4,19.4,0,0,1,37.673,67.5a25.569,25.569,0,0,1,3.656-.693c.827-.1,1.657-.168,2.488-.224.87-.058,1.743-.106,2.615-.12q1.782-.029,3.564,0c.778.013,1.556.067,2.333.115.737.045,1.474.1,2.211.162.839.067,1.677.134,2.514.216.97.095,1.938.2,2.906.313q1.265.144,2.527.307c.811.1,1.619.223,2.429.331.842.112,1.684.216,2.525.329.81.108,1.619.226,2.429.336.693.094,1.387.181,2.08.275s1.385.194,2.078.287q1.063.141,2.128.273c.663.082,1.325.167,1.989.239.609.066,1.221.117,1.831.177.461.045.922.1,1.384.139.485.044.971.082,1.457.121.619.05,1.237.1,1.857.146.384.027.77.055,1.154.064,1.416.036,2.832.082,4.248.088.809,0,1.618-.057,2.426-.1.573-.032,1.146-.073,1.715-.137.695-.078,1.386-.187,2.079-.277a1.594,1.594,0,0,1,.63-.039c-.1.046-.15.074-.2.094a25.268,25.268,0,0,1-5.193,1.353c-.917.135-1.837.253-2.759.345-.821.082-1.645.129-2.469.169s-1.635.059-2.452.074c-.74.014-1.48.02-2.219.011-.661-.008-1.322-.036-1.982-.066-.612-.029-1.225-.065-1.836-.112-.729-.057-1.456-.13-2.184-.194-.478-.042-.956-.077-1.433-.123-.6-.058-1.2-.127-1.805-.189-.414-.043-.829-.078-1.243-.123-.547-.059-1.093-.122-1.639-.186q-.738-.085-1.475-.174c-.475-.058-.951-.12-1.426-.182-.452-.058-.9-.115-1.356-.175q-.853-.113-1.7-.232-.805-.111-1.611-.225c-.684-.1-1.368-.194-2.053-.288s-1.355-.182-2.032-.274c-.56-.077-1.12-.157-1.681-.232-.467-.062-.936-.119-1.4-.175q-.8-.1-1.592-.188c-.382-.043-.766-.081-1.149-.123-.554-.061-1.108-.126-1.663-.186-.4-.044-.8-.087-1.2-.123q-.822-.076-1.644-.143c-.3-.024-.6-.045-.894-.061-.5-.026-1.006-.053-1.509-.069-.771-.025-1.542-.049-2.313-.056-.582-.006-1.165,0-1.746.023a34.923,34.923,0,0,0-4.735.467c-.681.123-1.355.277-2.033.416-.1.02-.2.036-.293.053Z" transform="translate(-14.109 -27.59)" fill="#0070bc"/>
          <path id="Path_214" data-name="Path 214" d="M90.529,76.721a15.037,15.037,0,0,1-2.47.733,31.251,31.251,0,0,1-3.417.57c-.851.094-1.7.18-2.557.245-.729.056-1.46.08-2.19.114-1.543.071-3.085.009-4.627-.038-.682-.02-1.364-.1-2.046-.151-.494-.04-.987-.08-1.48-.132-.547-.058-1.092-.127-1.638-.2s-1.075-.14-1.611-.221c-.707-.106-1.414-.216-2.118-.337-.929-.158-1.857-.325-2.785-.493-.959-.174-1.916-.355-2.874-.532q-1.333-.247-2.666-.492c-.9-.164-1.809-.33-2.715-.486-.8-.139-1.612-.269-2.419-.4-.66-.1-1.319-.206-1.981-.3-.514-.07-1.03-.125-1.546-.181q-.961-.105-1.922-.2c-.266-.027-.533-.05-.8-.065-.542-.03-1.084-.063-1.626-.08C43.917,74.047,42.792,74,41.667,74c-.881-.006-1.761.035-2.642.058a4.523,4.523,0,0,1-.689-.005c.194-.05.386-.106.581-.15a31.814,31.814,0,0,1,3.6-.621c.906-.1,1.814-.183,2.723-.242.753-.049,1.509-.05,2.263-.071.33-.009.661-.024.991-.016.975.023,1.951.05,2.926.091.707.029,1.414.067,2.119.127.829.071,1.657.166,2.485.257.64.071,1.28.146,1.919.23.833.111,1.665.232,2.5.351,1,.144,1.991.287,2.985.438.815.125,1.629.263,2.443.392q1.083.17,2.167.334c.652.1,1.3.2,1.958.3.583.083,1.168.158,1.752.232.687.087,1.373.172,2.06.25.453.051.908.087,1.361.131l1.5.146c.243.023.485.045.728.063.4.028.8.051,1.2.078l2.259.158.094.006c.605.027,1.21.064,1.815.081,1.621.043,3.242.086,4.863.114.811.013,1.621-.006,2.432-.009.157,0,.314,0,.471.006" transform="translate(-15.916 -30.287)" fill="#0070bc"/>
          <path id="Path_215" data-name="Path 215" d="M74.8,8.816c.447-.487.9-.973,1.348-1.455.054-.057.64-.657.652-.587a3.223,3.223,0,0,1-.25.773q-.695,1.881-1.391,3.76l-1.86,5.019q-1.385,3.738-2.77,7.475-1.154,3.119-2.306,6.238a1.111,1.111,0,0,1-.1.278.338.338,0,0,1-.122.2c-.724-1.754-1.423-3.715-2.158-5.493-.169.1-.309.188-.446.277l-7.733,5.036-5.182,3.375-.1.063a4.482,4.482,0,0,1-.945.443c.041-.052.615-.679.666-.735q1.382-1.5,2.765-3.006,2.342-2.546,4.683-5.091,1.735-1.885,3.472-3.767,2.079-2.258,4.155-4.518,1.775-1.928,3.552-3.854" transform="translate(-21.352 -2.81)" fill="#fff"/>
          <path id="Path_216" data-name="Path 216" d="M109.909,48.323a4.146,4.146,0,0,1-.633-.633c-.249-.232-.357-.475-.529-.605a4.3,4.3,0,0,0-1.454-1.323,4.651,4.651,0,0,0-1.615-.492,7.1,7.1,0,0,0-1.719.009c-.554.058-1.1.155-1.655.244-1.008.164-2.014.343-3.022.5-.923.146-1.849.28-2.775.408-.575.08-1.154.14-1.732.208-.507.058-1.015.119-1.522.171-.422.043-.846.074-1.268.112-.086.008-.172.019-.258.025-.108.008-.294.035-.41.04a1.686,1.686,0,0,1,.322-.158c.528-.205.971-.433,1.5-.635l4.232-1.618,4.518-1.729,6.058-2.323q2.611-1,5.223-2c.1-.038.2-.065.357-.115-.039.14-.057.228-.088.312q-.52,1.429-1.044,2.858l-1.418,3.877q-.418,1.14-.834,2.281c-.037.1-.173.439-.233.583" transform="translate(-37.913 -15.948)" fill="#fff"/>
          <path id="Path_217" data-name="Path 217" d="M37.845,45.182c.059-.082.2-.345.271-.43,1.881-2.4,3.77-4.8,5.642-7.215,1.371-1.765,2.722-3.545,4.079-5.32a6.968,6.968,0,0,1,1.433-1.461,4.361,4.361,0,0,1,2.2-.834c.681-.061,1.335-.142,2.036-.234.449-.05.791-.119,1.2-.166.121-.021.58-.125.659-.122-.111.1-.389.309-.448.364-.58.543-1.241,1.106-1.823,1.647q-1.228,1.14-2.459,2.279-2.122,1.965-4.243,3.931Q44.578,39.307,42.763,41c-1.477,1.371-2.623,2.322-4.1,3.691a5.139,5.139,0,0,1-.818.5" transform="translate(-15.713 -12.206)" fill="#fff"/>
          <path id="Path_218" data-name="Path 218" d="M100.487,45.22c-1.639-.168-3.345-.284-5.1-.339-12.834-.4-22.849,3.108-24.3,6.779l.063-.253,7.169.284h0c-.871-4.082,10.629-7.662,22.739-7.468Z" transform="translate(-29.512 -18.358)" fill="#fff"/>
          <line id="Line_73" data-name="Line 73" x1="22.83" y2="9.073" transform="translate(52.331 21.867)" fill="none" stroke="#0070bc" stroke-miterlimit="10" stroke-width="1.953"/>
        </g>
      </g>
    </g>
  </g>
</svg>
